<svg width="1500" height="700" viewBox="0 0 1920 796" fill="none" xmlns="http://www.w3.org/2000/svg">
<g clip-path="url(#clip0_5_51)">
<path d="M1952.9 460.337C1810.12 460.337 1887.23 483.189 1666.26 467.218C1593.58 462.619 1559.39 480.244 1451.29 399.802C1383.35 347.795 1342.89 305.67 1281.09 271.711C1128.34 194.915 1123.45 324.092 824.256 415.278C744.228 439.199 694.171 450.335 627.191 483.835C548.172 525.381 497.065 569.504 403.252 550.919C313.552 529.178 252.534 468.28 161.399 439.929C54.6654 410.926 -40.9147 460.337 -196.902 460.337" stroke="#3DDEED" stroke-opacity="0.05" stroke-width="0.5" stroke-linecap="round" stroke-linejoin="round"/>
<path d="M1952.9 460.337C1838.46 460.717 1852.44 482.302 1720.02 476.091C1584.16 468.588 1561.94 481.892 1469.2 416.552C1404.38 369.066 1361.47 323.458 1299.01 283.723C1138.77 188.227 1134.76 311.525 824.26 417.282C742.531 444.529 692.326 458.448 627.195 491.133C546.631 533.355 496.196 575.003 403.256 555.284C313.343 532.268 252.653 470.991 161.403 442.114C55.3501 412.743 -38.5817 460.289 -196.898 460.343" stroke="#3DDEED" stroke-opacity="0.05" stroke-width="0.5" stroke-linecap="round" stroke-linejoin="round"/>
<path d="M1952.9 460.337C1839.78 460.802 1853.43 484.33 1720.02 480.781C1584.59 475.934 1562.52 484.644 1478.15 426.668C1412.5 379.358 1371.53 334.456 1307.97 291.262C1147.12 188.155 1144.82 299.35 815.301 422.612C723.784 456.015 674.501 472.759 609.28 507.937C521.856 556.183 470.425 584.281 376.386 551.3C286.547 516.472 226.189 456.069 134.533 437.823C39.0798 422.926 -53.3472 460.349 -196.898 460.337" stroke="#3DDEED" stroke-opacity="0.05" stroke-width="0.5" stroke-linecap="round" stroke-linejoin="round"/>
<path d="M1952.9 460.337C1843.77 460.76 1860.11 483.014 1737.93 485.465C1697.43 485.725 1680.18 483.847 1639.4 482.876C1582.3 482.127 1553.58 481.173 1487.11 436.778C1422.4 391.291 1381.43 345.592 1316.92 299.224C1197.06 217.104 1147.45 258.619 1048.19 313.396C880.132 404.848 835.06 415.182 707.809 468.546C534.42 542.324 491.095 617.117 331.594 534.616C238.507 484.487 187.641 438.1 89.7402 435.97C-10.7194 436.314 -58.7063 460.361 -196.902 460.337" stroke="#3DDEED" stroke-opacity="0.05" stroke-width="0.5" stroke-linecap="round" stroke-linejoin="round"/>
<path d="M1952.9 460.337C1820.04 461.055 1903.14 491.954 1630.43 488.423C1486.51 487.131 1424.07 370.473 1299.01 289.095C1164.85 207.41 1137.54 278.484 860.089 407.075C648.271 503.567 787.82 433.338 564.492 545.898C358.615 645.281 284.283 454.054 107.659 438.493C14.0756 433.223 -54.4584 460.367 -196.898 460.337" stroke="#3DDEED" stroke-opacity="0.05" stroke-width="0.5" stroke-linecap="round" stroke-linejoin="round"/>
<path d="M1952.9 460.337C1823.76 461.2 1884.84 499.438 1612.52 493.789C1486.27 486.901 1407.75 357.55 1290.04 285.371C1180.58 223.091 1130.05 268.343 985.492 343.993C795.705 442.488 772.8 448.017 645.106 511.269C571.278 548.402 540.213 570.096 483.87 579.228C362.892 593.015 287.018 497.676 170.358 453.86C63.5551 417.801 -13.7619 460.391 -196.902 460.343" stroke="#3DDEED" stroke-opacity="0.05" stroke-width="0.5" stroke-linecap="round" stroke-linejoin="round"/>
<path d="M1952.9 460.337C1828.78 461.381 1863.52 505.987 1612.52 499.04C1490.65 491.441 1413.14 367.6 1299 291.902C1211.4 237.578 1162.77 252.456 1084.02 291.099C398.66 631.567 533.288 653.049 224.102 480.606C82.3103 404.691 23.2236 460.518 -196.902 460.343" stroke="#3DDEED" stroke-opacity="0.05" stroke-width="0.5" stroke-linecap="round" stroke-linejoin="round"/>
<path d="M1952.9 460.337C1860.28 461.297 1855.38 489.618 1737.93 502.36C1590.49 515.681 1552.94 495.968 1505.03 464.677C1366.52 368.245 1281.54 208.17 1119.86 273.329C970.037 338.409 770.102 467.948 573.447 562.949C404.868 641.218 341.279 539.324 197.232 468.962C76.2949 413.715 21.8253 460.645 -196.898 460.343" stroke="#3DDEED" stroke-opacity="0.05" stroke-width="0.5" stroke-linecap="round" stroke-linejoin="round"/>
<path d="M1952.9 460.337C1861.77 461.442 1848.67 494.217 1728.96 507.49C1519.65 526.848 1521.07 478.97 1343.8 327.774C1206.96 215.087 1149.93 238.423 878.004 399.295C545.064 599.286 492.891 626.261 376.382 575.263C285.673 532.425 226.341 470.061 134.529 449.05C43.8199 432.155 -26.3419 460.669 -196.902 460.337" stroke="#3DDEED" stroke-opacity="0.05" stroke-width="0.5" stroke-linecap="round" stroke-linejoin="round"/>
<path d="M1952.9 460.337C1863.63 461.593 1847.34 496.306 1728.96 511.806C1521.38 534.997 1516.62 478.463 1343.8 329.205C1221.16 226.942 1157.29 229.375 913.833 377.191C706.714 504.581 555.397 623.678 430.126 598.314C283.41 561.803 239.384 437.147 44.9516 446.044C-52.0514 451.657 -66.5668 460.669 -196.902 460.343" stroke="#3DDEED" stroke-opacity="0.05" stroke-width="0.5" stroke-linecap="round" stroke-linejoin="round"/>
<path d="M1952.9 460.337C1865.12 461.743 1846.71 498.304 1728.96 516.104C1523.16 543.006 1510.5 476.423 1343.8 330.569C1226.46 231.536 1154.62 224.015 913.833 376.195C752.884 479.127 585.568 617.612 457 607.845C313.478 589.906 244.428 448.132 71.8256 446.605C-21.8725 447.553 -42.2022 460.808 -196.902 460.331" stroke="#3DDEED" stroke-opacity="0.05" stroke-width="0.5" stroke-linecap="round" stroke-linejoin="round"/>
<path d="M1952.9 460.337C1855.99 462.136 1818.21 522.574 1657.31 525.707C1512.7 526.8 1482.31 454.12 1343.8 330.895C1236.49 238.821 1178.09 240.228 1057.16 293.405C862.094 382.092 742.781 528.942 555.532 600.004C360.747 667.777 281.351 464.442 98.6995 448.512C15.113 443.623 -31.5372 461.019 -196.898 460.331" stroke="#3DDEED" stroke-opacity="0.05" stroke-width="0.5" stroke-linecap="round" stroke-linejoin="round"/>
<path d="M1952.9 460.337C1864.58 462.226 1849.19 501.515 1728.96 523.999C1519.31 558.428 1504.6 471.473 1334.83 323.398C1260 260.581 1206.19 241.018 1119.86 266.351C857.465 350.228 679.229 625.501 474.915 620.696C329.646 610.097 250.476 458.743 89.7402 449.025C9.43401 446.201 -33.1076 461.097 -196.902 460.343" stroke="#3DDEED" stroke-opacity="0.05" stroke-width="0.5" stroke-linecap="round" stroke-linejoin="round"/>
<path d="M1952.9 460.337C1868.93 462.353 1844.06 504.382 1728.96 527.94C1521.64 565.484 1502.24 471.95 1334.83 323.591C1260.25 259.965 1206.8 240.24 1119.86 263.907C857.342 342.158 698.603 626.46 483.87 627.064C340.832 620.394 255.876 469.995 107.655 451.434C26.1103 443.937 -11.5436 461.152 -196.902 460.337" stroke="#3DDEED" stroke-opacity="0.05" stroke-width="0.5" stroke-linecap="round" stroke-linejoin="round"/>
<path d="M1952.9 460.337C1864.86 462.697 1842.17 509.506 1720.02 533.657C1513.06 569.323 1493.44 461.224 1325.89 316.034C1243.65 248.08 1191.04 241.791 1110.9 263.949C854.943 340.661 713.037 627.04 492.829 633.408C345.375 630.48 259.583 471.95 107.655 452.502C28.6197 445.066 -5.40941 461.303 -196.902 460.343" stroke="#3DDEED" stroke-opacity="0.05" stroke-width="0.5" stroke-linecap="round" stroke-linejoin="round"/>
<path d="M1952.9 460.337C1868.66 462.83 1838.48 512.319 1720.02 537.713C1602.27 559.805 1555.86 532.932 1505.03 492.563C1363.96 373.865 1297.49 217.997 1119.86 258.873C950.741 302.024 847.534 435.426 716.768 542.427C494.855 718.884 399.627 620.297 259.935 521.337C108.635 416.28 92.8482 461.586 -196.898 460.337" stroke="#3DDEED" stroke-opacity="0.05" stroke-width="0.5" stroke-linecap="round" stroke-linejoin="round"/>
<path d="M1952.9 460.337C1870.46 463.095 1836.52 514.655 1720.02 541.262C1602.68 564.772 1555.56 536.174 1505.03 495.032C1363.25 372.857 1298.95 216.596 1119.86 254.328C950.642 294.292 848.563 437.153 716.768 549.972C499.045 730.666 394.822 619.791 259.935 522.544C110.398 417.004 92.7826 461.774 -196.898 460.337" stroke="#3DDEED" stroke-opacity="0.05" stroke-width="0.5" stroke-linecap="round" stroke-linejoin="round"/>
<path d="M1952.9 460.337C1871.21 463.391 1835.57 516.798 1720.02 544.817C1604.63 569.408 1556.44 540.387 1505.03 497.507C1363.84 372.941 1300.1 215.317 1119.86 249.783C950.761 286.512 849.129 439.187 716.768 557.523C498.627 746.094 386.531 614.594 250.976 517.335C111.485 419.974 93.9635 462.003 -196.898 460.337" stroke="#3DDEED" stroke-opacity="0.05" stroke-width="0.5" stroke-linecap="round" stroke-linejoin="round"/>
<path d="M1952.9 460.337C1871.68 463.687 1835.06 518.88 1720.02 548.366C1604.66 574.466 1555.91 543.423 1505.03 499.976C1360.66 369.646 1301.36 214.055 1119.86 245.237C858.474 297.105 749.768 666.37 501.789 659.785C411.654 652.916 352.44 593.956 259.935 524.971C114.986 419.316 100.2 462.232 -196.898 460.337" stroke="#3DDEED" stroke-opacity="0.05" stroke-width="0.5" stroke-linecap="round" stroke-linejoin="round"/>
<path d="M1952.9 460.337C1867.66 464.188 1831.03 525.387 1711.05 554.058C1602.94 576.554 1555 548.596 1496.08 494.181C1353.03 356.089 1295.75 209.166 1110.89 242.298C855.591 295.536 744.925 691.716 492.825 665.543C402.846 651.679 343.686 588.192 250.972 519.55C114.986 421.761 100.241 462.456 -196.898 460.337" stroke="#3DDEED" stroke-opacity="0.05" stroke-width="0.5" stroke-linecap="round" stroke-linejoin="round"/>
<path d="M1952.9 460.337C1868.15 464.514 1830.62 527.566 1711.05 557.662C1605.15 580.913 1556.72 553.642 1496.08 496.39C1352.55 354.767 1296.81 207.482 1110.89 237.397C944.09 269.333 838.111 462.643 707.805 588.868C507.861 774.216 379.605 617.28 250.972 520.57C116.237 422.262 100.483 462.679 -196.898 460.337" stroke="#3DDEED" stroke-opacity="0.05" stroke-width="0.5" stroke-linecap="round" stroke-linejoin="round"/>
<path d="M1952.9 460.337C1868.54 464.912 1829.73 529.6 1711.05 560.674C1605.63 584.818 1556.73 556.473 1496.08 497.893C1352.99 353.463 1297.09 203.559 1110.89 230.823C856.37 276.474 762.016 708.538 501.784 679.384C407.779 664.047 346.097 593.401 250.972 520.884C118.053 422.66 103.53 462.963 -196.898 460.337" stroke="#3DDEED" stroke-opacity="0.05" stroke-width="0.5" stroke-linecap="round" stroke-linejoin="round"/>
<path d="M1952.9 460.337C1869.56 465.287 1828.54 531.689 1711.05 563.692C1606.89 588.518 1557.71 560.281 1496.08 499.402C1353.38 352.135 1297.44 199.635 1110.89 224.256C856.624 266.726 765.6 723.525 501.784 685.656C411.851 668.145 352.132 601.29 259.931 528.115C120.378 420.276 105.35 463.277 -196.898 460.337" stroke="#3DDEED" stroke-opacity="0.05" stroke-width="0.5" stroke-linecap="round" stroke-linejoin="round"/>
<path d="M1952.9 460.337C1869.67 465.715 1828.15 533.596 1711.05 566.71C1606.95 592.508 1557.2 562.629 1496.08 500.905C1353.13 350.143 1297.84 195.712 1110.89 217.689C948.789 242.769 836.627 476.006 707.805 613.555C517.924 806.177 367.8 612.994 250.972 521.506C119.119 421.586 105.33 463.566 -196.898 460.337" stroke="#3DDEED" stroke-opacity="0.05" stroke-width="0.5" stroke-linecap="round" stroke-linejoin="round"/>
<path d="M1952.9 460.337C1874.67 465.781 1831.04 530.53 1720.02 567.096C1610.36 599.238 1559.07 564.489 1505.03 511.643C1364.2 366.338 1305.97 197.124 1119.86 210.192C955.329 227.19 849.723 458.671 716.768 611.92C529.347 818.237 383.685 627.106 250.976 521.814C120.928 422.057 108.463 463.24 -196.898 460.337" stroke="#3DDEED" stroke-opacity="0.05" stroke-width="0.5" stroke-linecap="round" stroke-linejoin="round"/>
<path d="M1952.9 460.337C1873.01 466.313 1816.49 544.564 1702.1 575.04C1601.08 598.067 1552.12 565.485 1487.11 493.97C1347.04 333.816 1288.1 181.141 1101.95 205.599C943.294 234.137 827.553 501.605 698.849 639.607C518.051 821.653 364.782 610.344 242.016 515.09C119.714 423.958 108.139 463.5 -196.898 460.337" stroke="#3DDEED" stroke-opacity="0.05" stroke-width="0.5" stroke-linecap="round" stroke-linejoin="round"/>
<path d="M1952.9 460.337C1873.6 466.747 1822.96 540.103 1711.05 575.003C1609.41 602.896 1558.04 571.382 1496.08 504.666C1352.71 343.558 1297.54 181.437 1110.89 196.853C951.856 217.091 838.693 486.588 707.805 638.206C529.011 833.828 372.216 619.917 250.972 521.723C122.002 420.988 108.011 463.826 -196.898 460.337" stroke="#3DDEED" stroke-opacity="0.05" stroke-width="0.5" stroke-linecap="round" stroke-linejoin="round"/>
<path d="M1952.9 460.337C1874.21 467.152 1822.12 541.733 1711.05 577.357C1606.58 606.861 1555.35 570.675 1496.08 505.511C1356.45 345.303 1292.85 166.884 1101.95 190.394C950.441 217.683 836.487 494.103 707.809 646.415C529.565 845.357 372.29 616.827 242.021 514.377C119.866 422.328 107.671 464.152 -196.898 460.337" stroke="#3DDEED" stroke-opacity="0.05" stroke-width="0.5" stroke-linecap="round" stroke-linejoin="round"/>
<path d="M1952.9 460.337C1873.7 467.677 1822.32 543.079 1711.05 579.705C1608.65 609.445 1557.2 574.931 1496.08 506.35C1356.92 343.371 1291.93 160.093 1101.95 182.795C948.26 210.44 828.127 517.715 698.849 664.819C528.671 845.357 370.519 615.752 242.016 514.021C120.309 421.779 109.332 464.502 -196.898 460.337" stroke="#3DDEED" stroke-opacity="0.05" stroke-width="0.5" stroke-linecap="round" stroke-linejoin="round"/>
<path d="M1952.9 460.337C1875.83 467.93 1819.7 545.336 1711.05 582.053C1606.19 613.32 1554.74 574.345 1496.08 507.182C1358.23 342.472 1291.17 153.351 1101.95 175.183C949.974 202.52 828.004 523.431 698.849 673.209C530.996 854.254 370.273 615.879 242.016 513.653C120.14 420.795 108.331 464.816 -196.898 460.337" stroke="#3DDEED" stroke-opacity="0.05" stroke-width="0.5" stroke-linecap="round" stroke-linejoin="round"/>
<path d="M1952.9 460.337C1873.03 468.691 1822.12 545.837 1711.05 584.311C1606.34 616.374 1554.77 576.476 1496.08 507.943C1360.25 342.454 1290.5 146.355 1101.95 167.662C947.612 195.688 820.635 548.252 689.894 691.323C522.602 859.336 360.342 598.936 224.102 499.891C114.06 424.392 101.041 465.087 -196.902 460.331" stroke="#3DDEED" stroke-opacity="0.05" stroke-width="0.5" stroke-linecap="round" stroke-linejoin="round"/>
<path d="M1952.9 460.337C1873.2 469.156 1821.51 546.881 1711.05 586.025C1606.27 618.855 1554.87 578.233 1496.08 508.245C1361.2 340.709 1289.25 138.086 1101.95 160.588C953.127 189.38 829.172 534.489 698.849 689.283C536.662 867.503 376.513 620.104 242.016 512.675C120.149 419.739 105.773 465.631 -196.898 460.337" stroke="#3DDEED" stroke-opacity="0.05" stroke-width="0.5" stroke-linecap="round" stroke-linejoin="round"/>
<path d="M1952.9 460.337C1874.28 469.512 1819.64 548.421 1711.05 587.745C1602.82 622.446 1551.76 576.09 1496.08 508.547C1362.3 339.23 1288.13 129.817 1101.95 153.514C954.644 183.761 830.505 539.644 698.849 697.045C536.298 876.436 374.767 612.915 233.057 505.281C117.656 422.183 103.427 466.107 -196.898 460.337" stroke="#3DDEED" stroke-opacity="0.05" stroke-width="0.5" stroke-linecap="round" stroke-linejoin="round"/>
<path d="M1952.9 460.337C1873.08 470.134 1812.26 556.237 1702.1 592.393C1515.85 645.22 1467.67 432.825 1307.97 241.272C1263.33 190.37 1225.85 159.405 1164.64 147.774C1138.73 143.977 1118.65 142.806 1092.99 148.383C945.139 194.366 812.541 591.246 680.939 723.749C522.192 866.772 359.296 589.466 215.151 492.249C107.618 424.519 54.9647 466.234 -107.321 463.892C-151.597 462.764 -148.833 461.333 -196.898 460.337" stroke="#3DDEED" stroke-opacity="0.05" stroke-width="0.5" stroke-linecap="round" stroke-linejoin="round"/>
<path d="M1952.9 460.337C1874.38 470.465 1818.45 550.642 1711.05 591.174C1609.38 625.271 1557.89 586.924 1496.08 509.15C1363.48 335.041 1286.05 113.344 1101.95 139.366C958.166 172.298 831.883 551.426 698.849 712.57C544.142 884.711 388.019 626.581 242.016 510.901C121.252 419.847 109.93 467.158 -196.898 460.337" stroke="#3DDEED" stroke-opacity="0.05" stroke-width="0.5" stroke-linecap="round" stroke-linejoin="round"/>
<path d="M1952.9 460.337C1876.11 470.689 1815.82 552.404 1711.05 592.791C1523.61 657.027 1476.07 449.883 1316.92 242.895C1258.4 169.896 1194.33 118.777 1101.95 132.696C1020.89 152.416 949.535 282.745 886.959 397.979C737.2 676.324 674.099 868.716 474.911 727.395C326.554 615.903 252.665 451.241 80.7809 453.728C20.3944 455.888 -19.4615 465.003 -98.3694 464.453C-143.974 463.614 -146.422 461.55 -196.902 460.343" stroke="#3DDEED" stroke-opacity="0.05" stroke-width="0.5" stroke-linecap="round" stroke-linejoin="round"/>
<path d="M1952.9 460.337C1874.42 471.341 1816.62 552.416 1711.05 593.908C1608.27 629.865 1557.29 588.916 1496.08 509.211C1366.65 333.345 1283.74 96.872 1101.95 127.903C961.713 165.532 834.068 563.831 698.849 726.453C543.317 897.363 382.598 607.157 224.098 496.964C115.323 425.974 106.995 468.335 -196.906 460.331" stroke="#3DDEED" stroke-opacity="0.05" stroke-width="0.5" stroke-linecap="round" stroke-linejoin="round"/>
<path d="M1952.9 460.337C1874.51 471.739 1815.64 553.135 1711.05 595.025C1609.07 631.446 1558.09 591.132 1496.08 509.048C1368.26 332.524 1282.67 88.633 1101.95 123.117C959.839 164.771 827.815 593.027 689.894 742.533C541.37 886.734 375.55 600.029 224.102 496.662C115.843 427.411 109.385 469.125 -196.902 460.331" stroke="#3DDEED" stroke-opacity="0.05" stroke-width="0.5" stroke-linecap="round" stroke-linejoin="round"/>
<path d="M1952.9 460.337C1874.21 472.186 1815.08 553.69 1711.05 596.141C1608.73 633.414 1558.06 592.248 1496.08 508.891C1371.19 333.641 1282.14 80.3334 1101.95 118.336C962.423 162.725 827.901 601.26 689.894 748.774C541.144 890.621 374.381 590.618 215.147 490.753C107.122 427.821 56.2728 470.079 -107.325 465.136C-151.318 463.319 -151.56 461.737 -196.902 460.337" stroke="#3DDEED" stroke-opacity="0.05" stroke-width="0.5" stroke-linecap="round" stroke-linejoin="round"/>
<path d="M1952.9 460.337C1873.89 472.662 1805.56 562.11 1702.1 600.584C1516.11 660.956 1471.77 429.674 1307.97 213.458C1264.54 159.001 1226.67 123.575 1164.64 112.083C1138.31 108.528 1118.62 107.833 1092.99 116.628C956.104 180.664 818.61 634.518 680.939 763.393C537.704 879.762 372.593 587.305 215.151 490.565C106.949 428.865 56.5146 471.039 -107.321 465.419C-151.892 463.415 -151.757 461.84 -196.898 460.337" stroke="#3DDEED" stroke-opacity="0.05" stroke-width="0.5" stroke-linecap="round" stroke-linejoin="round"/>
<path d="M1952.9 460.337C1874.4 472.958 1812.98 555.145 1711.05 598.254C1610.51 636.359 1559.87 596.95 1496.08 508.468C1376.12 334.884 1281.02 64.0843 1101.95 109.554C966.187 159.828 830.685 615.094 689.894 760.725C545.687 892.606 382.16 590.618 215.147 490.457C107.302 430.495 54.2923 471.974 -107.325 465.733C-151.392 463.566 -152.294 461.936 -196.902 460.343" stroke="#3DDEED" stroke-opacity="0.05" stroke-width="0.5" stroke-linecap="round" stroke-linejoin="round"/>
<path d="M1952.9 460.337C1874.03 473.29 1812.22 555.253 1711.05 598.785C1610.03 637.79 1559.48 596.974 1496.08 507.846C1380.25 338.047 1309.57 135.841 1173.6 106.252C1050.6 86.6712 1018.08 166.854 842.171 520.069C707.489 787.018 658.826 825.245 555.533 777.258C437.859 716.506 348.467 572.631 224.102 495.829C117.758 434.485 111.94 472.403 -196.902 460.337" stroke="#3DDEED" stroke-opacity="0.05" stroke-width="0.5" stroke-linecap="round" stroke-linejoin="round"/>
<path d="M1952.9 460.337C1873.63 473.628 1811.44 555.38 1711.05 599.316C1523.42 673.107 1478.77 442.012 1316.92 214.019C1274.92 157.456 1236.06 116.157 1173.6 103.699C1147.74 100.071 1126.99 99.9082 1101.95 107.906C969.873 166.588 835.114 629.189 689.898 768.041C552.74 882.641 396.019 597.88 224.106 495.835C118.759 437.521 116.319 473.659 -196.898 460.337" stroke="#3DDEED" stroke-opacity="0.05" stroke-width="0.5" stroke-linecap="round" stroke-linejoin="round"/>
<path d="M1952.9 460.337C1877.43 473.254 1815.04 549.489 1720.02 595.858C1530.8 680.006 1491.04 467.58 1325.89 223.2C1267.06 139.915 1205.06 81.2025 1110.9 103.928C977.902 150.743 849.338 608.425 698.854 763.484C562.466 888.568 409.436 608.147 233.061 500.941C124.134 438.915 121.383 474.908 -196.902 460.343" stroke="#3DDEED" stroke-opacity="0.05" stroke-width="0.5" stroke-linecap="round" stroke-linejoin="round"/>
<path d="M1952.9 460.337C1872.92 474.298 1809.42 555.923 1711.05 600.373C1529.21 674.477 1489.39 463.12 1325.88 219.753C1267.29 136.366 1204.97 77.3817 1110.89 102.805C981.801 152.488 859.786 591.934 707.805 758.607C568.264 896.971 421.364 610.471 233.057 500.73C125.065 441.8 122.929 476.079 -196.906 460.343" stroke="#3DDEED" stroke-opacity="0.05" stroke-width="0.5" stroke-linecap="round" stroke-linejoin="round"/>
<path d="M1952.9 460.337C1873.8 474.389 1806.56 556.907 1711.05 600.765C1610.22 642.552 1560.64 600.693 1496.08 505.245C1366.12 305.085 1286.58 49.755 1110.89 102.806C983.298 156.351 861.803 600.24 707.805 762.247C569.859 892.836 426.772 608.075 233.057 500.495C127.111 445.519 125.668 477.395 -196.906 460.337" stroke="#3DDEED" stroke-opacity="0.05" stroke-width="0.5" stroke-linecap="round" stroke-linejoin="round"/>
<path d="M1952.9 460.337C1873.78 474.455 1804.04 557.414 1711.05 600.692C1610.89 642.83 1561.35 601.513 1496.08 504.116C1365.52 301.234 1286.63 46.5558 1110.89 106.675C984.84 164.964 864.173 609.517 707.805 763.454C571.996 883.021 431.184 602.878 233.057 500.199C181.942 475.487 144.37 467.749 89.7361 467.616C-95.1671 470.411 123.609 478.735 -196.906 460.331" stroke="#3DDEED" stroke-opacity="0.05" stroke-width="0.5" stroke-linecap="round" stroke-linejoin="round"/>
<path d="M1952.9 460.337C1871.98 474.848 1804.55 556.521 1711.05 600.626C1522.35 681.153 1478.93 427.881 1316.92 199.774C1275.29 144.086 1236.67 104.502 1173.6 99.9987C1140.05 99.7331 1121.42 105.232 1101.95 115.065C977.033 195.814 848.223 666.847 689.898 778.254C562.655 852.793 421.942 584.582 224.106 495.889C172.675 474.54 135.357 469.186 80.789 469.892C-144.011 475.62 -85.9124 467.236 -196.894 460.337" stroke="#3DDEED" stroke-opacity="0.05" stroke-width="0.5" stroke-linecap="round" stroke-linejoin="round"/>
<path d="M1952.9 460.337C1873.42 474.66 1811.27 548.704 1720.02 596.268C1618.17 644.943 1568.76 607.555 1505.03 515.464C1370.6 311.211 1291.91 37.9303 1110.9 114.413C984.507 183.67 862.512 650.176 698.853 772.568C568.502 855.823 435.444 583.176 224.102 495.913C172.761 476.32 134.775 471.437 80.7849 472.035C-142.756 477.051 -61.712 469.355 -196.898 460.337" stroke="#3DDEED" stroke-opacity="0.05" stroke-width="0.5" stroke-linecap="round" stroke-linejoin="round"/>
<path d="M1952.9 460.337C1871.07 475.155 1801.63 556.624 1711.05 600.481C1609.87 644.924 1560.57 599.618 1496.08 500.742C1379.42 314.682 1309.49 103.21 1173.6 103.059C1139.81 105.208 1121.29 112.143 1101.95 123.569C980.797 212.727 861.196 662.531 698.849 773.178C569.671 847.318 441.98 578.232 224.098 495.931C172.654 478.029 133.803 473.689 80.7809 474.165C-130.41 478.27 -74.6937 469.035 -196.902 460.331" stroke="#3DDEED" stroke-opacity="0.05" stroke-width="0.5" stroke-linecap="round" stroke-linejoin="round"/>
<path d="M1952.9 460.337C1869.48 475.463 1801.38 555.996 1711.05 600.258C1610.64 644.931 1561.48 600.548 1496.08 499.481C1366.45 291.19 1287.56 34.2604 1110.89 123.461C987.271 201.887 875.08 648.83 707.805 767.293C577.982 846.352 461.154 588.922 242.016 502.161C115.277 455.575 97.6703 494.133 -170.032 462.703C-179.307 461.761 -180.144 461.617 -196.906 460.337" stroke="#3DDEED" stroke-opacity="0.05" stroke-width="0.5" stroke-linecap="round" stroke-linejoin="round"/>
<path d="M1952.9 460.337C1868.38 475.494 1800.69 555.29 1711.05 599.582C1610.48 644.762 1561.51 599.437 1496.08 497.815C1364.39 285.299 1288.1 34.683 1110.89 132.569C989.977 214.979 882.916 641.526 716.764 759.048C582.48 841.596 477.453 588.409 250.972 503.935C116.171 457.229 85.4635 497.398 -161.073 463.977C-174.428 462.317 -177.265 461.949 -196.902 460.337" stroke="#3DDEED" stroke-opacity="0.05" stroke-width="0.5" stroke-linecap="round" stroke-linejoin="round"/>
<path d="M1952.9 460.337C1842.69 479.912 1758.93 606.173 1648.35 616.67C1463.45 620.623 1385.08 117.618 1191.52 115.867C1118.31 120.974 1085.36 156.538 1048.2 214.997C944.578 388.575 856.255 660.25 725.732 751.659C622.221 815.044 569.568 711.025 403.26 583.665C218.989 446.641 104.243 491.435 -53.5726 478.427C-119.786 472.24 -141.337 465.22 -196.894 460.343" stroke="#3DDEED" stroke-opacity="0.05" stroke-width="0.5" stroke-linecap="round" stroke-linejoin="round"/>
<path d="M1952.9 460.337C1868.8 475.131 1806.91 546.326 1720.02 593.733C1618.63 644.707 1569.86 605.515 1505.03 508.516C1368.86 294.956 1294.61 31.9063 1110.9 150.774C989.588 244.881 881.624 684.708 707.809 759.066C575.633 803.436 483.923 558.066 242.021 498.165C193.636 487.252 147.974 483.696 98.6995 482.96C-141.091 481.819 -56.0001 473.532 -196.898 460.331" stroke="#3DDEED" stroke-opacity="0.05" stroke-width="0.5" stroke-linecap="round" stroke-linejoin="round"/>
<path d="M1952.9 460.337C1864.73 475.675 1799.03 552.954 1711.05 597.566C1610.03 644.188 1561.67 596.172 1496.08 492.811C1379.92 302.984 1310.55 96.3288 1173.6 129.793C1140.2 140.078 1121.45 151.184 1101.95 167.234C984.983 280.482 879.664 698.862 707.809 756.319C575.337 788.751 491.919 551.493 250.976 498.605C109.369 470.544 86.8493 503.543 -161.069 464.641C-174.506 462.703 -177.228 462.293 -196.898 460.331" stroke="#3DDEED" stroke-opacity="0.05" stroke-width="0.5" stroke-linecap="round" stroke-linejoin="round"/>
<path d="M1952.9 460.337C1863.27 475.717 1799.22 551.734 1711.05 596.733C1610.35 643.56 1562.15 595.502 1496.08 490.994C1361.69 270.727 1290.74 36.705 1110.89 170.179C990.711 274.681 890.936 694.281 716.764 750.295C578.786 782.878 503.277 543.441 259.931 497.953C208.951 489.479 150.229 487.771 98.6955 487.215C-107.243 486.503 -89.9185 471.624 -196.902 460.331" stroke="#3DDEED" stroke-opacity="0.05" stroke-width="0.5" stroke-linecap="round" stroke-linejoin="round"/>
<path d="M1952.9 460.337C1832.87 480.413 1748.95 612.372 1639.4 613.748C1461.84 600.843 1380.83 85.645 1182.56 143.609C1108.2 170.572 1080.52 209.281 1039.25 283.005C934.081 477.944 851.302 716.337 716.768 744.295C611.659 757.388 547.742 626.629 403.256 541.087C290.233 477.95 204.285 491.223 27.041 488.851C-76.9244 486.425 -117.953 469.174 -196.898 460.331" stroke="#3DDEED" stroke-opacity="0.05" stroke-width="0.5" stroke-linecap="round" stroke-linejoin="round"/>
<path d="M1952.9 460.337C1864.66 474.733 1804.93 542.535 1720.02 589.635C1620.38 640.699 1572.07 602.328 1505.03 500.706C1362.56 275.061 1298.53 39.7713 1110.9 197.112C1027.47 277.222 965.965 478.053 860.089 632.502C704.836 846.932 614.381 687.515 474.915 575.83C326.017 460.717 250.537 496.444 18.0817 490.173C-77.9372 486.503 -123.415 469.041 -196.898 460.337" stroke="#3DDEED" stroke-opacity="0.05" stroke-width="0.5" stroke-linecap="round" stroke-linejoin="round"/>
<path d="M1952.9 460.337C1863.46 474.558 1804.85 541.226 1720.02 588.379C1620.31 639.558 1572.34 600.662 1505.03 498.491C1355.9 262.132 1304.1 55.7789 1119.86 202.635C995.943 312.515 907.625 707.391 734.683 731.952C585.826 740.885 519.974 497.609 277.85 487.312C209.689 485.737 247.937 490.867 53.911 492.249C-68.1495 492.014 -111.241 471.033 -196.902 460.331" stroke="#3DDEED" stroke-opacity="0.05" stroke-width="0.5" stroke-linecap="round" stroke-linejoin="round"/>
<path d="M1952.9 460.337C1862.19 474.371 1805 539.807 1720.02 587.118C1619.5 638.822 1571.77 597.759 1505.03 496.269C1353.44 255.873 1304.53 59.0443 1119.86 215.667C1032.02 297.793 974.867 494.278 869.044 639.89C718.064 835.065 621.651 660.316 483.87 551.71C338.925 442.368 276.181 496.638 35.9922 493.734C-69.9701 491.356 -116.374 470.936 -196.902 460.337" stroke="#3DDEED" stroke-opacity="0.05" stroke-width="0.5" stroke-linecap="round" stroke-linejoin="round"/>
<path d="M1952.9 460.337C1856 474.89 1799.84 544.66 1711.05 590.311C1610.49 637.398 1561.97 584.1 1496.08 479.67C1348.25 238.03 1294.28 58.2839 1110.89 238.248C990.404 370.068 902.463 752.07 725.723 721.395C578.737 684.72 514.484 457.241 277.846 477.316C180.941 487.167 211.616 493.185 62.8662 495.123C-63.9917 495.696 -106.685 472.795 -196.902 460.337" stroke="#3DDEED" stroke-opacity="0.05" stroke-width="0.5" stroke-linecap="round" stroke-linejoin="round"/>
<path d="M1952.9 460.337C1855.06 474.461 1799.57 543.29 1711.05 588.518C1610.17 635.448 1561.34 579.965 1496.08 476.851C1382.98 292.783 1314.81 111.552 1182.56 193.714C1156.67 211.484 1133.49 231.016 1110.89 254.153C989.26 391.744 903.832 765.373 725.723 712.618C640.288 680.996 577.691 586.134 483.87 516.798C409.559 464.991 354.835 458.049 268.89 472.294C-13.6143 522.659 -67.6657 478.97 -196.902 460.331" stroke="#3DDEED" stroke-opacity="0.05" stroke-width="0.5" stroke-linecap="round" stroke-linejoin="round"/>
<path d="M1952.9 460.337C1853.93 474.069 1799.72 541.684 1711.05 586.725C1610.02 633.402 1561.23 576.639 1496.08 474.039C1382.94 290.707 1315.09 113.924 1182.56 205.533C1157.36 224.546 1133.42 246.046 1110.89 270.064C988.034 413.636 905.017 779.021 725.723 703.848C635.461 659.586 566.481 549.024 465.955 486.871C390.381 443.841 335.637 449.696 250.976 470.749C24.0682 528.17 -98.6565 475.119 -196.898 460.337" stroke="#3DDEED" stroke-opacity="0.05" stroke-width="0.5" stroke-linecap="round" stroke-linejoin="round"/>
<path d="M1952.9 460.337C1852.67 473.677 1800.04 540.018 1711.05 584.932C1610.21 631.192 1561.47 573.88 1496.08 471.22C1382.86 288.57 1315.37 116.266 1182.56 217.339C1157.66 237.819 1133.08 261.372 1110.89 285.968C987.271 435.022 906.116 792.861 725.723 695.072C636.753 640.723 565.501 527.083 465.955 469.041C381.422 424.193 322.532 443.738 233.061 471.485C41.659 529.944 -114.701 473.224 -196.902 460.343" stroke="#3DDEED" stroke-opacity="0.05" stroke-width="0.5" stroke-linecap="round" stroke-linejoin="round"/>
<path d="M1952.9 460.337C1824.34 476.701 1750.68 594.445 1648.35 600.01C1467.58 594.071 1390.56 71.1526 1191.52 221.709C1022.3 362.306 1001.98 550.153 878.004 674.748C717.855 819.275 614.439 495.841 430.13 436.646C317.132 406.719 243.899 485.531 116.618 494.706C-61.3347 504.774 -82.8617 478.916 -196.894 460.337" stroke="#3DDEED" stroke-opacity="0.05" stroke-width="0.5" stroke-linecap="round" stroke-linejoin="round"/>
<path d="M1952.9 460.337C1855.72 472.119 1806 530.373 1720.02 576.711C1619.95 626.436 1572.37 580.599 1505.03 479.296C1439.77 377.595 1403.06 299.731 1343.8 237.668C1260.37 158.85 1210.07 207.917 1128.81 296.9C991.367 452.641 917.224 800.726 743.638 689.935C670.11 637.355 602.814 533.403 510.744 460.965C315.459 317.163 276.128 559.539 -89.41 483.467C-139.242 472.644 -152.86 467.755 -196.902 460.331" stroke="#3DDEED" stroke-opacity="0.05" stroke-width="0.5" stroke-linecap="round" stroke-linejoin="round"/>
<path d="M1952.9 460.337C1854.38 471.642 1807.46 528.037 1720.02 574.448C1620.18 623.267 1572.59 576.85 1505.03 475.705C1437.18 370.648 1396.81 286.3 1334.83 231.186C1255.63 169.165 1205.56 222.18 1119.86 322.468C987.488 484.065 913.206 821.46 734.683 672.642C664.365 609.215 593.268 499.1 501.789 434.026C309.394 308.072 276.698 565.104 -107.325 479.646C-159.236 467.779 -160.572 466.62 -196.902 460.343" stroke="#3DDEED" stroke-opacity="0.05" stroke-width="0.5" stroke-linecap="round" stroke-linejoin="round"/>
<path d="M1952.9 460.337C1853.72 471.051 1807.41 526.498 1720.02 572.178C1620.22 620.183 1572.69 572.885 1505.03 472.101C1435.82 365.59 1396.41 284.484 1334.83 233.153C1259.78 178.72 1212.22 222.24 1110.9 349.099C983.691 517.655 909.938 828.601 734.683 661.741C665.882 591.681 588.988 468.268 492.829 408.059C303.723 301.403 276.144 564.271 -107.325 479.761C-158.465 468.148 -159.096 467.025 -196.902 460.337" stroke="#3DDEED" stroke-opacity="0.05" stroke-width="0.5" stroke-linecap="round" stroke-linejoin="round"/>
<path d="M1952.9 460.337C1852.8 470.502 1808.01 524.602 1720.02 569.915C1619.7 617.346 1572.55 568.587 1505.03 468.504C1438.63 366.966 1402.08 293.791 1343.8 242.105C1261.38 177.972 1211.92 235.2 1110.9 364.793C1024.07 481.982 966.06 657.347 869.044 705.092C734.367 755.45 657.522 475.584 483.87 383.191C343.349 317.857 265.54 471.962 107.655 489.618C-56.7422 505.836 -82.3041 481.089 -196.902 460.337" stroke="#3DDEED" stroke-opacity="0.05" stroke-width="0.5" stroke-linecap="round" stroke-linejoin="round"/>
<path d="M1952.9 460.337C1851.96 469.91 1808.35 522.87 1720.02 567.651C1619.59 614.352 1572.3 564.126 1505.03 464.912C1439.04 364.636 1401.86 291.98 1343.8 243.59C1265.61 187.092 1216.49 235.381 1101.95 392.794C1019.9 511.541 962.304 673.891 869.044 710.108C736.315 745.551 667.24 467.14 492.829 367.871C348.541 295.68 267.197 467.731 107.655 487.916C-54.7166 506.072 -81.4061 481.765 -196.902 460.349" stroke="#3DDEED" stroke-opacity="0.05" stroke-width="0.5" stroke-linecap="round" stroke-linejoin="round"/>
<path d="M1952.9 460.337C1851.42 469.258 1807.94 521.488 1720.02 565.183C1619.86 610.761 1572.7 560.245 1505.03 460.989C1437.02 358.371 1395.88 279.6 1334.83 238.845C1266.53 201.102 1218.5 237.439 1092.98 420.698C1011.2 546.308 953.041 699.87 860.089 715.039C729.807 720.043 657.276 424.857 483.874 343.6C344.354 288.431 263.954 463.258 107.659 485.459C-53.2447 505.879 -80.0161 482.302 -196.898 460.331" stroke="#3DDEED" stroke-opacity="0.05" stroke-width="0.5" stroke-linecap="round" stroke-linejoin="round"/>
<path d="M1952.9 460.337C1850.81 468.564 1808.19 519.689 1720.02 562.352C1619.69 606.692 1572.58 554.879 1505.03 456.486C1436.23 353.542 1395.61 277.482 1334.83 240.161C1256.59 201.241 1209.75 269.225 1101.95 420.427C1018.83 542.035 961.488 696.557 869.049 714.23C734.859 722.952 671.278 419.147 492.833 327.822C350.578 265.645 266.541 452.357 116.618 480.256C-46.0935 506.283 -81.3487 482.085 -196.894 460.337" stroke="#3DDEED" stroke-opacity="0.05" stroke-width="0.5" stroke-linecap="round" stroke-linejoin="round"/>
<path d="M1952.9 460.337C1850.34 467.852 1807.99 518.114 1720.02 559.515C1620.06 602.377 1573.06 550.394 1505.03 451.977C1439.94 355.377 1401.28 285.407 1343.8 246.499C1259.2 199.074 1211.71 278.297 1101.95 433.241C1018.32 555.863 961.094 706.106 869.044 714.888C734.117 710.403 672.308 394.472 492.829 307.849C350.418 250.09 267.152 445.488 116.614 476.32C-42.2515 504.581 -74.3863 483.425 -196.898 460.337" stroke="#3DDEED" stroke-opacity="0.05" stroke-width="0.5" stroke-linecap="round" stroke-linejoin="round"/>
<path d="M1952.9 460.337C1850.59 467.055 1805.62 517.534 1720.02 556.678C1620.14 598.188 1573.23 545.433 1505.03 447.468C1439.83 351.52 1401.11 283.144 1343.8 247.326C1257.52 203.577 1210.44 291.926 1101.95 446.044C1017.8 569.679 960.647 715.588 869.044 715.528C733.457 697.734 673.316 369.712 492.829 287.864C348.631 233.896 268.271 442.682 107.655 474.129C-46.0566 501.666 -67.6698 484.68 -196.902 460.331" stroke="#3DDEED" stroke-opacity="0.05" stroke-width="0.5" stroke-linecap="round" stroke-linejoin="round"/>
<path d="M1952.9 460.337C1814.59 468.407 1747.83 573.561 1648.35 567.766C1521.79 548.813 1452.77 297.588 1334.83 244.097C1250.5 216.108 1203.53 301.898 1012.37 601.658C896.71 776.805 830.94 743.511 725.728 559.762C659.572 441.71 556.053 223.296 412.216 266.647C298.368 309.111 240.471 444.251 98.7036 472.125C-43.3217 498.889 -64.0819 485.398 -196.894 460.343" stroke="#3DDEED" stroke-opacity="0.05" stroke-width="0.5" stroke-linecap="round" stroke-linejoin="round"/>
<path d="M1952.9 460.337C1848.96 465.57 1807.16 513.394 1720.02 550.75C1620.23 589.405 1573.43 534.9 1505.03 438.04C1444.9 351.097 1401.96 278.93 1343.8 248.479C1253.48 212.112 1206.16 322.275 1110.9 456.884C1021.42 585.089 967.089 721.196 878.004 716.717C738.496 690.883 684.756 339.737 501.789 252.046C356.991 194.601 272.638 416.721 125.573 461.478C-32.8206 502.945 -91.3906 480.008 -196.898 460.331" stroke="#3DDEED" stroke-opacity="0.05" stroke-width="0.5" stroke-linecap="round" stroke-linejoin="round"/>
<path d="M1952.9 460.337C1848.64 464.683 1806.95 511.565 1720.02 547.237C1621.86 583.46 1575.47 531.393 1505.03 432.438C1447.11 349.467 1402.59 276.069 1343.8 247.96C1252.42 215.359 1204.42 332.289 1110.9 464.532C1021.19 592.429 966.556 724.437 878.004 713.337C736.979 676.535 685.81 317.108 501.789 233.407C358.357 180.217 270.453 408.524 125.573 455.556C-33.1855 500.241 -91.5956 479.368 -196.898 460.343" stroke="#3DDEED" stroke-opacity="0.05" stroke-width="0.5" stroke-linecap="round" stroke-linejoin="round"/>
<path d="M1952.9 460.337C1848.28 463.771 1806.91 509.639 1720.02 543.719C1621.41 578.257 1575 524.337 1505.03 426.825C1448.06 346.033 1402.86 272.991 1343.8 247.422C1251.51 218.739 1203.83 341.518 1110.9 472.155C1023.03 596.829 971.062 717.079 886.963 711.725C744.007 683.09 693.556 312.581 510.748 218.594C365.11 155.898 277.563 389.209 134.533 446.521C-21.2534 500.295 -109.789 475.717 -196.898 460.337" stroke="#3DDEED" stroke-opacity="0.05" stroke-width="0.5" stroke-linecap="round" stroke-linejoin="round"/>
<path d="M1952.9 460.337C1813.58 463.681 1746.72 561.579 1648.35 549.145C1522.83 521.886 1452.27 275.587 1334.83 244.531C1238.89 231.18 1201.75 361.081 1012.37 625.476C887.701 791.328 819.077 690.623 725.727 500.579C658.629 361.376 560.051 135.497 412.216 202.901C300.554 262.217 238.388 411.204 107.659 449.158C-34.0015 487.837 -60.5434 483.57 -196.898 460.337" stroke="#3DDEED" stroke-opacity="0.05" stroke-width="0.5" stroke-linecap="round" stroke-linejoin="round"/>
<path d="M1952.9 460.337C1847.57 461.931 1806.45 505.981 1720.02 536.687C1622.28 567.337 1576.2 513.2 1505.03 415.616C1450.26 339.26 1403.33 266.738 1343.8 246.372C1251.77 226.266 1202.94 356.041 1119.86 474.866C1018.75 616.766 965.182 733.678 878.004 703.154C732.03 631.754 682.341 230.286 492.829 174.815C351.353 146.144 268.14 389.221 116.614 440.798C-32.7837 487.058 -69.9128 481.385 -196.898 460.337" stroke="#3DDEED" stroke-opacity="0.05" stroke-width="0.5" stroke-linecap="round" stroke-linejoin="round"/>
<path d="M1952.9 460.337C1847.23 460.929 1806.47 503.917 1720.02 532.878C1622.11 561.615 1576.03 506.084 1505.03 409.568C1454.05 339.315 1404.85 263.545 1343.8 245.195C1251.34 228.88 1202.23 362.692 1119.86 480.189C1019.09 620.509 964.809 733.968 878.004 698.011C731.074 616.664 682.542 208.593 492.829 157.57C349.385 132.086 269.493 384.422 107.655 437.563C-29.8396 480.383 -57.5665 482.055 -196.898 460.337" stroke="#3DDEED" stroke-opacity="0.05" stroke-width="0.5" stroke-linecap="round" stroke-linejoin="round"/>
<path d="M1952.9 460.337C1810.9 459.54 1747.15 551.433 1648.35 533.276C1527.15 500.12 1457.98 273.196 1343.8 243.016C1281.02 234.204 1239.01 295.023 1200.48 354.894C1016.99 648.938 959.462 717.725 886.967 694.341C723.649 618.939 654.536 62.8229 430.134 149.428C314.183 203.891 246.318 378.875 116.622 427.779C-30.4465 478.705 -67.268 478.687 -196.898 460.337" stroke="#3DDEED" stroke-opacity="0.05" stroke-width="0.5" stroke-linecap="round" stroke-linejoin="round"/>
<path d="M1952.9 460.337C1847.09 458.575 1805.44 499.698 1720.02 524.379C1614.62 550.497 1571.05 484.704 1478.15 359.964C1439.15 308.302 1393.08 245.992 1334.83 239.914C1244.52 241.906 1198.85 376.666 1110.9 495.931C1021.61 616.211 968.799 717.272 886.963 686.971C738.812 611.503 693.56 206.396 510.748 131.422C364.02 84.4802 273.93 351.984 125.573 417.403C-34.1491 480.491 -92.2271 473.791 -196.898 460.337" stroke="#3DDEED" stroke-opacity="0.05" stroke-width="0.5" stroke-linecap="round" stroke-linejoin="round"/>
<path d="M1952.9 460.337C1842.24 457.277 1796.61 502.897 1711.05 522.146C1612.53 539.771 1571.15 476.538 1478.15 353.68C1287.8 105.455 1258.61 301.481 1092.98 521.331C1012.77 629.496 955.226 728.324 869.044 668.368C722.993 546.664 678.516 149.536 492.829 110.984C350.033 94.7413 269.858 355.509 107.655 417.523C-24.952 466.101 -57.5255 476.344 -196.898 460.337" stroke="#3DDEED" stroke-opacity="0.05" stroke-width="0.5" stroke-linecap="round" stroke-linejoin="round"/>
<path d="M1952.9 460.337C1840.89 456.003 1797.99 500.12 1711.05 517.691C1609.88 533.475 1565.4 461.019 1478.15 347.397C1287.36 102.516 1257.51 308.03 1092.98 522.532C1010.82 631.054 950.392 731.741 860.089 652.258C715.833 505.788 669.076 111.775 483.874 94.6267C395.56 94.7957 335.805 192.621 242.021 304.427C163.236 395.987 139.396 398.721 53.915 431.376C-48.8162 469.783 -94.9457 470.785 -196.898 460.337" stroke="#3DDEED" stroke-opacity="0.05" stroke-width="0.5" stroke-linecap="round" stroke-linejoin="round"/>
<path d="M1952.9 460.331C1841.93 454.717 1795.95 497.869 1711.05 512.977C1539.75 535.63 1469.87 233.841 1334.83 233.757C1243.55 245.159 1198.07 385.702 1110.89 498.46C1014.55 621.324 957.941 719.831 869.04 650.797C718.416 513.249 673.862 95.2665 483.866 81.0336C395.33 82.8504 335.153 182.855 242.012 295.536C163.412 388.273 139.65 391.357 53.9068 425.636C-49.0541 466.192 -95.2655 469.137 -196.898 460.343" stroke="#3DDEED" stroke-opacity="0.05" stroke-width="0.5" stroke-linecap="round" stroke-linejoin="round"/>
<path d="M1952.9 460.319C1846.15 453.631 1804.35 490.233 1720.02 506.543C1613.77 522.743 1572.25 452.75 1478.15 333.725C1437.88 283.705 1392.92 229.007 1334.83 230.473C1243.63 244.133 1197.61 385.273 1110.9 494.567C1016.16 612.04 958.138 710.464 869.044 639.927C718.962 500.833 672.849 81.3837 483.87 69.8005C395.441 72.7944 335.194 173.548 242.016 287.26C173.897 368.33 147.187 381.102 89.736 404.812C-30.7212 454.892 -68.6006 468.884 -196.898 460.355" stroke="#3DDEED" stroke-opacity="0.05" stroke-width="0.5" stroke-linecap="round" stroke-linejoin="round"/>
<path d="M1952.9 460.301C1845.5 452.225 1804.7 487.493 1720.02 501.69C1619.11 514.486 1577.94 452.677 1487.12 337.818C1447.21 288.081 1401.76 230.775 1343.8 226.719C1250.24 231.524 1201.09 375.561 1119.87 479.658C956.711 679.885 898.743 773.643 734.687 398.082C674.784 258.197 614.127 76.3738 492.833 58.99C350.156 52.1512 271.363 318.243 107.659 390.693C-21.0894 445.609 -58.4399 466.79 -196.898 460.367" stroke="#3DDEED" stroke-opacity="0.05" stroke-width="0.5" stroke-linecap="round" stroke-linejoin="round"/>
<path d="M1952.9 460.289C1845.27 450.873 1804.39 484.873 1720.02 496.855C1618.92 507.104 1578.49 444.607 1487.12 330.593C1446.8 281.091 1401.69 225.699 1343.8 223.212C1250.23 230.419 1200.96 374.698 1119.87 476.073C954.78 673.191 897.148 758.559 734.687 386.323C672.619 241.284 613.155 63.3058 492.833 47.6423C350.328 42.7229 271.584 309.268 107.659 383.975C-21.0197 440.696 -59.7274 463.989 -196.898 460.379" stroke="#3DDEED" stroke-opacity="0.05" stroke-width="0.5" stroke-linecap="round" stroke-linejoin="round"/>
<path d="M1952.9 460.277C1845.16 449.496 1803.64 482.29 1720.02 492.008C1545.92 505.191 1478.63 221.872 1343.8 219.687C1247.64 229.58 1199.97 379.479 1110.9 482.876C1016.02 590.522 957.859 681.624 869.044 607.32C716.092 459.226 671.762 40.0672 483.87 36.0955C395.871 42.6687 335.575 145.311 242.016 262.44C172.384 347.512 147.511 359.119 80.7808 389.462C-32.55 442.048 -74.5503 461.152 -196.898 460.385" stroke="#3DDEED" stroke-opacity="0.05" stroke-width="0.5" stroke-linecap="round" stroke-linejoin="round"/>
<path d="M1952.9 460.253C1844.64 448.042 1803.49 479.538 1720.02 487.058C1615.12 492.31 1576.69 422.69 1478.15 305.411C1287.46 84.1059 1251 323.706 1092.98 496.861C1013.02 585.373 955.042 668.23 869.044 596.226C717.301 449.43 675.846 46.9965 492.829 27.3251C350.611 25.6652 272.441 292.101 107.655 371.004C-18.6005 429.74 -61.6751 458.387 -196.898 460.385" stroke="#3DDEED" stroke-opacity="0.05" stroke-width="0.5" stroke-linecap="round" stroke-linejoin="round"/>
<path d="M1952.9 460.222C1843.76 446.545 1803.58 476.628 1720.02 481.994C1547.3 486.165 1479.4 208.291 1343.8 211.894C1247.8 225.578 1199.94 373.364 1110.9 469.469C1015.22 570.199 961.865 650.254 878.004 592.218C720.409 462.854 674.62 22.5505 483.874 21.2346C395.97 29.0332 335.87 131.531 242.021 249.342C172.453 334.582 147.65 346.528 80.7849 378.024C-32.3409 432.215 -75.1982 455.87 -196.898 460.361" stroke="#3DDEED" stroke-opacity="0.05" stroke-width="0.5" stroke-linecap="round" stroke-linejoin="round"/>
<path d="M1952.9 460.192C1842.76 444.988 1803.5 473.749 1720.02 476.924C1549.04 476.665 1479.09 201.657 1343.8 207.856C1250.13 222.868 1201.56 362.994 1119.86 452.424C962.484 615.384 900.679 711.357 743.642 368.843C660.121 183.012 613.93 37.7916 501.789 16.1525C358.386 2.13082 273.282 274.229 116.614 355.353C-27.3548 425.902 -73.6318 453.064 -196.898 460.337" stroke="#3DDEED" stroke-opacity="0.05" stroke-width="0.5" stroke-linecap="round" stroke-linejoin="round"/>
<path d="M1952.9 460.162C1841.62 443.352 1804.22 470.84 1720.02 471.854C1549.91 467.158 1479.64 195.006 1343.8 203.812C1250.45 220.399 1201.06 359.692 1119.86 445.048C962.66 600.946 900.769 698.929 743.642 360.761C657.878 172.377 612.86 30.9889 501.789 10.0802C358.697 -3.19907 273.462 267.601 116.614 349.667C-29.9585 422.286 -75.805 450.486 -196.898 460.319" stroke="#3DDEED" stroke-opacity="0.05" stroke-width="0.5" stroke-linecap="round" stroke-linejoin="round"/>
<path d="M1952.9 460.132C1836.5 441.064 1794.27 470.743 1711.05 466.307C1545.05 450.058 1467.06 160.842 1325.88 204.283C1261.51 231.234 1220.79 306.153 1164.63 384.832C1131.65 429.3 1125.02 432.529 1084.02 471.184C998.502 553.841 940.969 624.776 851.13 533.717C701.256 363.978 650.104 -30.2102 465.959 5.96361C378.072 31.3632 318.009 141.792 224.106 253.247C157.511 329.687 132.109 336.019 71.8296 366.066C-33.7596 419.401 -82.5174 448.482 -196.898 460.295" stroke="#3DDEED" stroke-opacity="0.05" stroke-width="0.5" stroke-linecap="round" stroke-linejoin="round"/>
<path d="M1952.9 460.102C1835.74 439.446 1793.83 467.61 1711.05 461.164C1612.43 449.104 1579.88 381.464 1478.15 270.106C1291.54 72.8003 1250.91 314.543 1092.98 453.438C1012.3 526.142 955.091 604.121 869.044 540.284C711.105 404.142 667.096 -1.26768 483.874 0.156821C396.421 9.1022 336.137 110.375 242.021 227.401C174.549 309.334 147.999 324.104 89.7401 352.558C-23.1478 408.168 -74.8783 445.307 -196.898 460.264" stroke="#3DDEED" stroke-opacity="0.05" stroke-width="0.5" stroke-linecap="round" stroke-linejoin="round"/>
<path d="M1952.9 460.071C1801.95 431.593 1736.24 488.567 1639.4 430.936C1528.27 356.035 1450.16 168.978 1334.83 194.553C1272.67 215.063 1228.38 285.172 1182.56 348.363C1137.48 409.272 1146.3 396.096 1030.28 499.921C981.977 541.612 941.773 567.561 886.959 542.167C710.519 439.682 655.336 -86.9067 439.085 12.7661C325.464 74.7681 250.644 260.044 125.573 331.039C-26.2231 410.817 -92.2312 445.223 -196.898 460.228" stroke="#3DDEED" stroke-opacity="0.05" stroke-width="0.5" stroke-linecap="round" stroke-linejoin="round"/>
<path d="M1952.9 460.041C1831.3 435.577 1794.77 461.629 1711.05 451.229C1606.96 433.706 1571.87 352.673 1469.2 248.467C1291.88 77.3155 1241.86 316.535 1101.95 426.071C1013.39 496.052 957.847 579.355 869.049 521.126C710.203 398.637 663.742 0.338089 483.874 0.181152C396.728 8.28753 336.034 107.924 242.021 222.391C172.749 304.777 147.777 317.289 80.7849 349.552C-26.5757 402.319 -83.85 441.619 -196.898 460.186" stroke="#3DDEED" stroke-opacity="0.05" stroke-width="0.5" stroke-linecap="round" stroke-linejoin="round"/>
<path d="M1952.9 460.017C1836.78 435.227 1801.1 456.45 1720.02 447.583C1620.57 432.909 1592.01 372.851 1487.12 260.545C1294.11 60.8491 1246.05 307.988 1110.9 409.755C971.115 512.512 905.144 648.884 743.642 338.222C649.837 153.019 609.219 21.9832 501.789 1.1348C360.354 -12.9412 273.708 247.314 116.614 328.625C-49.6199 410.196 -91.6366 440.696 -196.898 460.144" stroke="#3DDEED" stroke-opacity="0.05" stroke-width="0.5" stroke-linecap="round" stroke-linejoin="round"/>
<path d="M1952.9 459.987C1830.22 432.457 1792.76 455.249 1711.05 441.287C1611.62 419.974 1582.38 350.747 1478.15 244.99C1294.85 66.7161 1246.42 307.288 1101.95 406.592C961.287 505.04 899.121 634.259 734.679 318.05C651.801 155.011 603.544 11.7642 492.833 0.29575C353.346 -1.02614 272.983 248.944 107.659 329.422C-36.3224 397.568 -85.3179 437.177 -196.898 460.108" stroke="#3DDEED" stroke-opacity="0.05" stroke-width="0.5" stroke-linecap="round" stroke-linejoin="round"/>
<path d="M1952.9 459.969C1829.98 430.881 1792.22 452.327 1711.05 436.784C1606.62 412.278 1572.36 329.192 1469.2 231.113C1294.88 74.5146 1243.78 306.551 1101.95 397.297C1013.17 455.466 958.597 540.507 869.049 494.175C708.793 393.874 658.682 6.33167 483.874 3.19897C397.077 9.69977 336.182 106.204 242.021 216.765C172.835 296.121 147.56 308.573 80.7849 339.574C-35.7934 394.81 -90.4721 436.096 -196.898 460.077" stroke="#3DDEED" stroke-opacity="0.05" stroke-width="0.5" stroke-linecap="round" stroke-linejoin="round"/>
<path d="M1952.9 459.963C1828.55 429.107 1792.32 449.75 1711.05 432.734C1610.9 407.437 1580.74 334.939 1478.15 235.145C1297.42 67.2957 1243 303.376 1110.9 383.13C976.007 463.023 906.19 621.076 743.642 337.969C644.601 159.876 607.87 33.6147 501.789 10.5511C361.17 -6.86888 274.36 244.223 116.614 321.889C-74.3043 410.673 -97.8692 435.946 -196.898 460.053" stroke="#3DDEED" stroke-opacity="0.05" stroke-width="0.5" stroke-linecap="round" stroke-linejoin="round"/>
<path d="M1952.9 459.957C1832.24 428.624 1789.42 446.515 1711.05 428.684C1554.13 386.269 1473.37 126.147 1325.88 181.98C1261.81 212.051 1226.32 272.744 1164.63 335.132C1134.18 363.93 1128.17 364.678 1092.98 384.657C1009.37 435.855 951.803 523.425 860.089 477.691C698.185 380.185 650.469 6.94745 474.915 15.585C388.228 27.7114 327.337 125.181 233.061 229.206C165.569 301.578 143.394 308.911 71.8255 340.721C-42.2761 392.438 -96.758 433.797 -196.898 460.035" stroke="#3DDEED" stroke-opacity="0.05" stroke-width="0.5" stroke-linecap="round" stroke-linejoin="round"/>
<path d="M1952.9 459.945C1829.41 426.463 1790.57 444.166 1711.05 424.628C1554.28 379.472 1474.67 123.068 1325.88 180.332C1261.62 210.705 1225.51 271.102 1164.63 329.524C1133.92 356.934 1128.23 356.934 1092.98 375.392C962.988 449.834 895.135 604.7 725.723 313.179C646.373 172.956 594.81 27.2466 483.87 21.114C397.397 24.2467 336.243 116.224 242.016 220.592C173.388 294.805 147.74 307.04 80.7808 335.313C-41.2797 387.772 -95.5361 431.593 -196.898 460.011" stroke="#3DDEED" stroke-opacity="0.05" stroke-width="0.5" stroke-linecap="round" stroke-linejoin="round"/>
<path d="M1952.9 459.939C1830.86 425.455 1788.81 441.094 1711.05 420.584C1610.14 389.728 1580.52 314.791 1478.15 221.727C1300.88 68.8469 1250.79 294.618 1101.95 361.835C975.093 422.715 901.532 599.033 734.679 331.957C640.169 175.322 599.562 44.7632 492.825 27.6933C354.814 18.3375 272.835 252.607 107.651 322.927C-54.4133 389.094 -92.2517 428.708 -196.898 459.987" stroke="#3DDEED" stroke-opacity="0.05" stroke-width="0.5" stroke-linecap="round" stroke-linejoin="round"/>
<path d="M1952.9 459.951C1828.14 423.457 1789.87 439.187 1711.05 417.27C1556.75 367.895 1477.05 118.348 1325.88 178.352C1265.23 207.434 1232.26 258.155 1173.6 312.044C1137.57 342.961 1130.8 341.856 1092.98 358.443C967.868 420.457 894.897 593.087 725.723 323.778C640.62 183.803 592.916 44.7209 483.87 35.6367C397.696 36.2705 336.736 124.571 242.016 224.95C172.982 296.357 146.768 307.952 80.7808 333.701C-48.2176 384.796 -95.6058 428.044 -196.898 459.987" stroke="#3DDEED" stroke-opacity="0.05" stroke-width="0.5" stroke-linecap="round" stroke-linejoin="round"/>
<path d="M1952.9 459.981C1825.24 421.519 1791.26 437.811 1711.05 414.626C1561.96 365.366 1482.02 128.646 1334.83 175.6C1270.32 201.555 1234.24 256.658 1173.6 309.569C1137.26 338.995 1130.78 337.063 1092.98 352.165C969.848 408.922 894.323 589.985 725.723 332.905C635.712 190.623 591.427 57.4568 483.87 46.5196C348.069 44.9925 272.946 263.201 98.6954 328.039C-61.0395 386.613 -87.5486 423.898 -196.898 460.011" stroke="#3DDEED" stroke-opacity="0.05" stroke-width="0.5" stroke-linecap="round" stroke-linejoin="round"/>
<path d="M1952.9 460.011C1794.32 410.866 1732.74 444.287 1639.4 373.877C1538.39 290.695 1451.95 128.622 1325.88 180.054C1264.96 209.589 1230.6 259.996 1173.6 307.107C1109.35 356.035 1114.43 320.851 1030.28 384.464C975.146 427.169 934.839 463.12 878 463.995C687.253 449.913 635.621 -12.4885 430.126 67.2594C318.591 118.873 246.568 271.446 116.614 322.921C-97.5002 401.679 -87.2041 422.195 -196.898 460.029" stroke="#3DDEED" stroke-opacity="0.05" stroke-width="0.5" stroke-linecap="round" stroke-linejoin="round"/>
<path d="M1952.9 460.035C1824.85 419.25 1780.93 433.917 1702.1 406.188C1557.68 349.027 1474.52 108.377 1316.92 185.27C1253.67 220.737 1223.61 268.941 1164.63 311.024C1132.69 331.438 1127.5 328.516 1092.98 339.605C968.475 388.376 890.362 590.323 716.768 338.156C630.18 207.458 583.743 73.1686 474.915 67.8569C388.86 71.219 327.916 157.558 233.061 247.622C170.231 305.489 144.632 315.835 80.7849 336.436C-53.38 380.426 -91.7392 422.232 -196.898 460.047" stroke="#3DDEED" stroke-opacity="0.05" stroke-width="0.5" stroke-linecap="round" stroke-linejoin="round"/>
<path d="M1952.9 460.065C1824.43 418.037 1780.75 431.956 1702.1 403.453C1560.88 346.099 1479.61 117.376 1325.88 181.751C1264.01 212.094 1230.76 260.17 1173.6 302.157C1143.24 322.36 1135.58 322.969 1101.95 330.798C979.333 365.415 897.718 576.295 734.679 372.151C633.456 238.217 604.434 117.497 501.784 82.796C363.503 48.6804 275.111 269.858 116.61 326.271C-97.7093 396.325 -79.9464 416.298 -196.898 460.065" stroke="#3DDEED" stroke-opacity="0.05" stroke-width="0.5" stroke-linecap="round" stroke-linejoin="round"/>
<path d="M1952.9 460.108C1821.4 416.292 1782.23 431.201 1702.1 401.697C1560.76 343.498 1477.29 109.518 1316.92 188.662C1249.1 226.737 1216.68 278.912 1155.69 312.129C1121.33 327.798 1119.43 320.784 1084.02 332.325C961.426 383.185 880.562 587.22 707.809 346.86C627.81 230.854 585.252 109.536 483.87 91.7234C349.061 79.9652 271.67 284.967 98.6954 334.395C-65.6812 379.817 -76.5144 413.618 -196.898 460.108" stroke="#3DDEED" stroke-opacity="0.05" stroke-width="0.5" stroke-linecap="round" stroke-linejoin="round"/>
<path d="M1952.9 460.162C1827.84 417.68 1790.47 430.314 1711.05 404.069C1608.67 366.151 1581.01 289.143 1478.15 211.804C1306.53 91.5785 1249.5 304.475 1110.9 324.056C982.855 344.337 901.589 568.961 743.642 404.335C638.861 286.868 613.709 161.294 510.748 113.272C372.593 61.3742 278.096 276.987 125.573 330.116C11.4718 365.408 60.5289 333.617 -134.195 432.263C-160.872 445.488 -171.311 450.046 -196.898 460.156" stroke="#3DDEED" stroke-opacity="0.05" stroke-width="0.5" stroke-linecap="round" stroke-linejoin="round"/>
<path d="M1952.9 460.21C1795.1 405.826 1732.74 435.293 1639.4 363.248C1544.93 284.133 1460.91 141.834 1334.83 188.01C1272.78 215.015 1239.67 259.259 1182.56 298.439C1112.27 341.892 1112.57 301.505 1039.25 351.827C926.015 435.354 858.293 536.753 734.683 406.097C625.846 282.582 577.785 93.4979 439.085 121.197C328.67 151.534 251.078 293.423 125.573 334.112C74.1012 348.797 40.4001 349.226 -35.6622 382.545C-102.511 412.99 -125.727 431.436 -196.898 460.21" stroke="#3DDEED" stroke-opacity="0.05" stroke-width="0.5" stroke-linecap="round" stroke-linejoin="round"/>
<path d="M1952.9 460.265C1835.89 419.383 1797.12 428.479 1720.02 405.216C1614.55 369.845 1589.19 297.437 1487.12 220.381C1309.37 94.9828 1253.85 311.978 1110.9 321.261C980.358 332.657 897.153 579.18 734.683 417.904C633.358 309.165 610.912 192.567 510.744 142.082C423.246 105.89 352.342 176.481 268.89 249.052C97.9492 395.311 140.548 291.226 -134.199 431.654C-162.438 445.838 -171.176 449.629 -196.902 460.258" stroke="#3DDEED" stroke-opacity="0.05" stroke-width="0.5" stroke-linecap="round" stroke-linejoin="round"/>
<path d="M1952.9 460.313C1802.06 406.858 1739.2 431.95 1648.35 368.167C1560.07 300.147 1476.08 158.898 1352.75 189.332C1287.75 209.866 1250.29 256.205 1191.52 295.91C1117.58 341.397 1116.34 299.091 1048.2 339.918C946.489 408.361 869.069 543.827 743.646 438.034C626.277 329.072 587.019 134.911 448.049 145.649C337.797 162.598 258.299 299.966 134.537 339.641C81.2687 354.332 48.117 350.463 -26.6987 379.285C-94.1461 406.767 -115.907 425.92 -196.898 460.313" stroke="#3DDEED" stroke-opacity="0.05" stroke-width="0.5" stroke-linecap="round" stroke-linejoin="round"/>
<path d="M1952.9 460.337C1790.88 403.061 1727.83 435.01 1630.43 354.272C1524.72 260.352 1451.52 148.42 1325.89 205.164C1261.2 238.103 1230.04 280.687 1173.6 309.563C1106.25 338.633 1105.89 297.081 1030.28 352.22C927.856 432.457 850.584 552.718 725.727 433.29C618.683 322.112 572.295 133.022 430.13 162.23C320.104 192.507 245.908 321.219 116.618 348.767C62.165 358.703 27.898 357.55 -44.6174 387.494C-107.858 414.946 -120.885 427.948 -196.898 460.343" stroke="#3DDEED" stroke-opacity="0.05" stroke-width="0.5" stroke-linecap="round" stroke-linejoin="round"/>
<path d="M1952.9 460.337C1828.23 416.938 1780.13 427.634 1702.1 399.005C1567.87 344.228 1488.53 137.869 1325.88 212.057C1262.28 244.61 1228.56 287.791 1173.6 314.416C1141.99 327.158 1133.75 324.074 1101.95 323.911C979.956 332.096 891.716 583.14 734.679 454.235C633.624 362.541 611.651 242.081 510.74 186.175C424.833 146.229 356.093 207.192 268.886 275.116C93.615 409.115 103.378 313.45 -98.3736 413.437C-155.033 442.096 -158.793 444.311 -196.906 460.337" stroke="#3DDEED" stroke-opacity="0.05" stroke-width="0.5" stroke-linecap="round" stroke-linejoin="round"/>
<path d="M1952.9 460.337C1832 418.906 1787.47 427.779 1711.05 403.176C1609.14 366.513 1580.1 289.385 1478.15 227.003C1309 132.34 1253.11 335.862 1110.9 326.935C978.439 322.758 894.754 589.858 734.683 466.621C633.567 379.895 611.983 258.758 510.744 201.132C425.763 160.311 356.376 218.727 277.85 277.693C90.5439 417.252 103.198 318.249 -89.41 409.562C-138.914 433.591 -147.603 439.784 -196.902 460.337" stroke="#3DDEED" stroke-opacity="0.05" stroke-width="0.5" stroke-linecap="round" stroke-linejoin="round"/>
<path d="M1952.9 460.337C1827.38 418 1789.42 428.775 1711.05 404.063C1569.74 354.2 1497.6 155.15 1334.83 221.679C1268.07 252.752 1230.24 299.779 1173.6 324.128C1142.16 334.987 1134.35 331.275 1101.95 329.392C977.762 331.721 886.278 601.538 725.723 471.763C627.728 384.005 604.536 262.603 501.785 211.653C418.276 177.531 354.113 232.658 268.89 293.622C90.2281 419.606 96.5632 321.738 -98.3694 414.385C-150.42 439.639 -152.86 442.138 -196.902 460.331" stroke="#3DDEED" stroke-opacity="0.05" stroke-width="0.5" stroke-linecap="round" stroke-linejoin="round"/>
<path d="M1952.9 460.337C1828.07 418.906 1787.93 428.696 1711.05 404.951C1569.93 356.161 1499.12 160.287 1334.83 228.53C1266.74 260.527 1230.91 305.918 1173.6 328.981C1142.09 338.971 1134.33 334.866 1101.95 332.132C979.415 331.444 889.51 594.82 734.679 491.386C634.059 415.031 612.044 291.709 510.74 231.053C426.546 188.01 357.734 241.423 277.846 296.731C86.8781 427.682 97.4735 326.331 -89.4142 410.691C-137.955 433.272 -146.799 439.827 -196.906 460.331" stroke="#3DDEED" stroke-opacity="0.05" stroke-width="0.5" stroke-linecap="round" stroke-linejoin="round"/>
<path d="M1952.9 460.337C1819.15 417.361 1780.43 429.982 1702.1 403.864C1605.8 367.95 1578.88 296.682 1478.15 242.129C1309.42 159.514 1253.98 358.334 1110.9 338.029C980.095 324.182 892.408 601.363 734.683 502.426C636.901 432.155 616.001 317.44 519.703 250.428C385.087 168.58 291.43 338.277 143.488 370.877C67.9096 384.126 31.6827 360.737 -80.4508 407.763C-132.354 430.465 -141.251 437.986 -196.898 460.337" stroke="#3DDEED" stroke-opacity="0.05" stroke-width="0.5" stroke-linecap="round" stroke-linejoin="round"/>
<path d="M1952.9 460.337C1817.61 418.181 1781.1 431.642 1702.1 406.58C1605.2 372.054 1579.62 302.32 1478.15 249.728C1309.25 170.856 1254.01 367.557 1110.9 344.59C978.992 328.287 892.511 606.167 734.683 512.549C636.745 445.5 616.05 331.208 519.703 263.708C385.26 181.177 291.467 347.59 143.488 376.974C66.3884 388.858 31.5679 364.02 -80.4508 409.158C-130.537 430.284 -142.002 438.843 -196.898 460.325" stroke="#3DDEED" stroke-opacity="0.05" stroke-width="0.5" stroke-linecap="round" stroke-linejoin="round"/>
<path d="M1952.9 460.337C1819.13 419.95 1779.84 432.716 1702.1 409.296C1572.15 365.155 1498.83 186.537 1334.83 256.253C1228.8 306.587 1209.68 368.831 1110.9 351.163C979.964 332.633 891.592 610.374 734.683 522.689C636.79 459.015 616.038 344.971 519.703 276.999C385.407 193.804 291.672 356.892 143.488 383.088C65.6585 393.422 31.0594 367.467 -80.4508 410.57C-130.402 430.857 -141.776 439.338 -196.898 460.337" stroke="#3DDEED" stroke-opacity="0.05" stroke-width="0.5" stroke-linecap="round" stroke-linejoin="round"/>
<path d="M1952.9 460.337C1821.09 421.839 1789.64 434.231 1711.05 414.566C1574.12 375.537 1505.38 200.855 1343.8 262.03C1277.09 290.574 1238.83 333.393 1182.56 356.107C1152.56 365.801 1141.17 363.706 1110.9 357.737C975.978 336.279 887.435 627.004 725.727 527.301C626.83 457.307 605.594 335.935 501.789 279.842C420.289 242.6 359.14 286.572 268.894 339.363C85.1395 444.903 86.6976 343.709 -98.3654 419.129C-143.195 438.016 -151.675 443.581 -196.898 460.343" stroke="#3DDEED" stroke-opacity="0.05" stroke-width="0.5" stroke-linecap="round" stroke-linejoin="round"/>
<path d="M1952.9 460.337C1770.51 408.832 1720.89 447.329 1621.47 373.098C1514.47 288.498 1447.26 221.83 1325.89 279.739C1257.66 315.056 1220.13 356.741 1164.64 368.734C1103.67 376.207 1095.3 336.713 1021.32 390.905C918.22 473.133 837.906 613.35 716.772 531.695C607.353 447.945 571.877 262.73 421.175 279.908C311.358 298.873 239.966 399.277 107.663 396.446C51.9304 393.85 19.6398 386.215 -44.6174 402.053C-103.224 418.248 -129.012 435.867 -196.898 460.337" stroke="#3DDEED" stroke-opacity="0.05" stroke-width="0.5" stroke-linecap="round" stroke-linejoin="round"/>
<path d="M1952.9 460.337C1769.76 411.059 1720.38 449.864 1621.47 378.609C1514.39 296.797 1447.59 232.918 1325.89 290.616C1257.02 325.951 1220.09 366.314 1164.64 377.408C1104.11 383.867 1095.02 344.651 1021.32 397.375C918.864 477.383 837.742 617.913 716.772 539.499C606.55 458.043 572.43 274.862 421.175 290.767C311.461 308.628 239.724 406.767 107.663 401.631C52.2666 398.094 19.5742 389.758 -44.6174 404.389C-102.556 419.334 -129.791 437.026 -196.898 460.331" stroke="#3DDEED" stroke-opacity="0.05" stroke-width="0.5" stroke-linecap="round" stroke-linejoin="round"/>
<path d="M1952.9 460.337C1810.63 423.867 1772.83 440.744 1693.14 420.047C1571.78 383.505 1496.35 222.361 1325.89 302.26C1260.93 335.144 1226.17 370.726 1173.6 385.056C1142.18 390.905 1134.39 385.623 1101.95 379.122C976.098 364.032 881.817 635.025 725.728 551.191C626.592 489.032 605.812 370.467 501.789 314.283C417.284 275.454 353.871 321.442 259.935 369.332C84.586 456.082 79.2637 356.868 -107.325 426.578C-150.936 443.394 -155.365 446.527 -196.902 460.343" stroke="#3DDEED" stroke-opacity="0.05" stroke-width="0.5" stroke-linecap="round" stroke-linejoin="round"/>
<path d="M1952.9 460.337C1810.55 425.672 1772.76 443.068 1693.14 424.344C1571.79 390.923 1497.43 234.379 1325.89 313.891C1261.07 346.238 1226.04 380.963 1173.6 394.49C1142.1 399.904 1134.1 394.514 1101.95 387.724C975.97 371.149 881.489 637.615 725.727 557.046C626.342 496.831 605.943 379.961 501.789 324.309C417.009 285.715 352.776 331.486 259.935 377.076C81.3425 462.075 81.7157 358.358 -116.28 431.28C-159.478 447.571 -161.88 449.194 -196.898 460.331" stroke="#3DDEED" stroke-opacity="0.05" stroke-width="0.5" stroke-linecap="round" stroke-linejoin="round"/>
<path d="M1952.9 460.337C1810.99 427.586 1784.28 444.933 1702.1 430.531C1573.09 403.429 1504.9 250.199 1334.83 321.43C1223.93 372.211 1206.61 423.028 1110.9 398.323C979.062 369.097 889.924 630.975 734.683 567.374C633.358 516.973 612.184 400.725 510.744 339.092C425.571 294.081 360.317 336.345 268.89 380.607C81.523 469.095 83.524 364.763 -107.325 429.396C-152.281 445.187 -155.5 447.776 -196.902 460.331" stroke="#3DDEED" stroke-opacity="0.05" stroke-width="0.5" stroke-linecap="round" stroke-linejoin="round"/>
<path d="M1952.9 460.337C1767.78 419.974 1720.4 463.331 1621.47 403.798C1511.17 332.754 1447.8 281.979 1325.89 337.172C1254.66 371.752 1219.78 406.725 1164.64 414.656C1104.25 417.916 1094.73 379.943 1021.32 426.179C916.146 499.155 832.219 638.804 707.813 557.927C602.994 480.787 565.98 311.012 412.216 332.023C304.777 351.99 235.238 434.66 107.659 422.044C49.7777 414.862 15.2196 403.447 -53.5768 416.202C-108.387 427.93 -134.072 442.211 -196.898 460.343" stroke="#3DDEED" stroke-opacity="0.05" stroke-width="0.5" stroke-linecap="round" stroke-linejoin="round"/>
<path d="M1952.9 460.337C1767.76 422.437 1720.44 467.037 1621.47 410.896C1510.08 342.997 1447.47 295.644 1325.89 349.479C1256.39 382.382 1219.21 417.004 1164.64 424.151C1104.1 426.74 1094.84 389.402 1021.32 433.531C915.85 503.452 832.067 639.069 707.813 560.517C602.326 484.982 566.259 319.323 412.216 340.172C304.818 359.873 235.046 440.521 107.659 426.608C50.1508 418.876 15.5066 407.039 -53.5768 418.682C-109.248 429.644 -132.153 442.663 -196.898 460.343" stroke="#3DDEED" stroke-opacity="0.05" stroke-width="0.5" stroke-linecap="round" stroke-linejoin="round"/>
<path d="M1952.9 460.337C1801.44 431.388 1780.68 453.806 1693.14 442.796C1572.74 423.137 1501.75 286.524 1325.89 362.149C1256.11 394.188 1219.07 427.284 1164.64 433.742C1131.41 434.829 1125.79 427.332 1092.99 421.664C970.742 412.302 871.669 649.572 716.772 566.661C619.519 506.669 598.39 398.854 492.833 354.743C412.691 327.013 354.962 364.72 259.939 405.192C82.3841 477.968 80.0305 378.259 -116.276 436.615C-159.715 449.931 -160.63 451.035 -196.894 460.343" stroke="#3DDEED" stroke-opacity="0.05" stroke-width="0.5" stroke-linecap="round" stroke-linejoin="round"/>
<path d="M1952.9 460.337C1805.51 434.177 1779.97 456.13 1693.14 447.848C1573.59 432.119 1502.67 301.052 1325.89 374.819C1256.11 405.868 1218.94 437.563 1164.64 443.34C1131.5 444.082 1125.85 436.772 1092.99 430.833C970.607 420.01 871.476 647.985 716.772 567.144C619.568 508.667 598.152 403.574 492.833 361.292C411.576 334.353 351.677 373.316 259.939 411.174C83.3477 481.27 79.4564 383.456 -116.276 438.046C-159.978 450.619 -160.396 451.561 -196.894 460.337" stroke="#3DDEED" stroke-opacity="0.05" stroke-width="0.5" stroke-linecap="round" stroke-linejoin="round"/>
<path d="M1952.9 460.337C1766.13 429.74 1720.77 478.855 1621.47 433.495C1508.98 377.487 1448.63 337.812 1325.89 387.494C1256.58 417.342 1218.6 447.873 1164.64 452.937C1104.12 453.679 1094.98 419.135 1021.32 455.852C918.926 512.784 836.647 628.766 716.772 567.627C602.917 500.905 574.296 346.208 421.175 360.489C311.055 375.941 238.74 456.83 107.663 439.428C50.3723 430.428 15.5559 417.934 -53.5726 426.306C-108.354 434.394 -132.85 445.995 -196.894 460.343" stroke="#3DDEED" stroke-opacity="0.05" stroke-width="0.5" stroke-linecap="round" stroke-linejoin="round"/>
<path d="M1952.9 460.337C1764.06 431.968 1722.09 483.286 1621.47 441.028C1508.02 388.762 1448.88 351.924 1325.89 400.164C1254.87 429.71 1218.64 458.116 1164.64 462.528C1104.22 462.643 1094.96 429.052 1021.32 463.289C918.942 516.562 836.537 627.661 716.772 568.104C604.782 504.189 573.689 352.944 421.175 367.66C310.801 383.317 238.703 462.142 107.663 443.696C50.3108 434.249 15.6092 421.568 -53.5726 428.841C-108.026 435.988 -132.846 447.021 -196.894 460.337" stroke="#3DDEED" stroke-opacity="0.05" stroke-width="0.5" stroke-linecap="round" stroke-linejoin="round"/>
<path d="M1952.9 460.337C1771.27 435.342 1724.9 483.274 1630.43 452.037C1546.02 419.902 1471.27 361.684 1334.83 409.417C1261.44 437.014 1221.21 467.707 1164.64 471.636C1104.31 471.196 1095.1 438.891 1021.32 470.146C919.098 518.898 836.516 623.515 716.772 565.152C604.45 502.553 573.447 357.284 421.175 372.996C310.682 389.215 238.617 465.914 107.663 447.142C50.5896 437.605 15.6666 424.924 -53.5726 431.292C-107.739 437.629 -132.649 447.987 -196.894 460.343" stroke="#3DDEED" stroke-opacity="0.05" stroke-width="0.5" stroke-linecap="round" stroke-linejoin="round"/>
<path d="M1952.9 460.337C1763.77 436.591 1722.51 490.626 1621.47 456.257C1510.27 413.968 1451.62 380.317 1325.89 425.37C1255.54 452.013 1218.18 477.461 1164.64 480.509C1104.52 479.519 1095.18 448.699 1021.32 476.725C918.959 520.721 836.475 617.859 716.772 560.553C604.073 499.155 573.168 360.513 421.175 377.444C310.268 394.49 238.543 469.005 107.663 450.184C49.9705 440.545 15.6297 428.177 -53.5726 433.688C-108.046 439.332 -131.328 448.736 -196.894 460.337" stroke="#3DDEED" stroke-opacity="0.05" stroke-width="0.5" stroke-linecap="round" stroke-linejoin="round"/>
<path d="M1952.9 460.337C1825.33 445.657 1804.66 461.2 1711.05 471.479C1609.45 480.479 1600.03 442.639 1487.11 421.718C1311.14 393.971 1244.65 517.878 1110.89 479.652C977.565 444.215 887.726 616.833 734.679 563.812C630.787 521.397 609.797 433.217 510.74 391.375C429.421 362.143 368.665 394.188 277.846 428.974C90.7284 498.605 86.8248 411.427 -98.3694 441.885C-141.481 449.532 -149.28 452.635 -196.902 460.337" stroke="#3DDEED" stroke-opacity="0.05" stroke-width="0.5" stroke-linecap="round" stroke-linejoin="round"/>
<path d="M1952.9 460.337C1769.59 441.462 1726.47 494.084 1630.43 473.846C1545.46 451.796 1471.95 403.429 1325.89 450.553C1254.35 474.842 1217.8 496.547 1164.64 498.255C1104.98 496.191 1095.44 468.317 1021.32 489.883C918.93 524.198 836.442 606.596 716.772 551.342C602.744 492.099 572.5 366.942 421.175 386.341C310.149 404.872 238.293 475.167 107.663 456.275C-69.8389 426.698 -22.4507 434.817 -196.894 460.343" stroke="#3DDEED" stroke-opacity="0.05" stroke-width="0.5" stroke-linecap="round" stroke-linejoin="round"/>
<path d="M1952.9 460.337C1821.06 448.337 1793.72 467.725 1702.1 481.584C1573.78 497.966 1519.67 404.015 1325.88 463.144C1254.55 485.96 1217.5 506.084 1164.63 507.122C1132.68 505.734 1126.41 500.271 1092.98 492.69C968.458 471.739 870.406 616.308 716.768 546.737C617.19 496.251 595.585 417.711 492.829 392.202C407.808 375.815 346.142 415.351 250.976 446.225C81.8469 497.923 101.463 412.586 -161.069 455.267C-174.337 457.307 -176.966 457.723 -196.898 460.337" stroke="#3DDEED" stroke-opacity="0.05" stroke-width="0.5" stroke-linecap="round" stroke-linejoin="round"/>
<path d="M1952.9 460.337C1775.04 445.917 1733.07 496.348 1639.4 488.797C1564.49 478.892 1486.22 431.364 1334.83 472.379C1259.35 494.042 1220.22 514.764 1164.64 515.204C1105.68 512.162 1095.82 487.457 1021.32 502.227C918.59 526.443 836.475 592.948 716.772 539.698C601.551 482.773 571.385 371.849 421.175 393.699C310.247 413.721 237.641 479.64 107.663 461.345C-68.2356 432.909 -20.2528 439.561 -196.894 460.343" stroke="#3DDEED" stroke-opacity="0.05" stroke-width="0.5" stroke-linecap="round" stroke-linejoin="round"/>
<path d="M1952.9 460.337C1823.05 450.963 1800.93 468.679 1702.1 489.286C1574.46 513.261 1527.26 432.203 1325.88 486.419C1249.85 507.738 1210.59 525.683 1155.69 522.417C1124.02 518.675 1116.61 512.874 1084.02 506.718C959.971 489.883 861.713 601.411 707.809 527.294C611.642 476.743 586.417 408.445 483.87 393.723C398.303 385.617 336.485 425.346 242.017 452.901C86.8125 494.978 97.0635 422.968 -161.073 456.287C-174.477 457.923 -177.273 458.273 -196.902 460.331" stroke="#3DDEED" stroke-opacity="0.05" stroke-width="0.5" stroke-linecap="round" stroke-linejoin="round"/>
<path d="M1952.9 460.337C1825.02 452.237 1802.28 469.27 1702.1 492.998C1608.18 513.418 1601.08 485.423 1478.15 479.646C1329.58 475.312 1250.81 536.493 1155.69 530.101C1124.97 526.365 1116.07 520.733 1084.02 514.353C1002.68 501.925 944.959 535.998 851.13 545.457C659.096 559.756 626.055 411.904 483.87 395.021C345.129 384.989 268.731 490.668 89.7402 461.768C-51.8833 437.267 -56.2707 447.124 -196.902 460.343" stroke="#3DDEED" stroke-opacity="0.05" stroke-width="0.5" stroke-linecap="round" stroke-linejoin="round"/>
<path d="M1952.9 460.337C1837.12 454.041 1814.96 465.492 1711.05 494.332C1581.77 528.61 1539.66 463.627 1343.8 505.269C1206.04 536.053 1197.47 551.372 1101.95 526.021C1010.72 503.845 950.732 535.485 851.13 540.369C663.344 545.149 623.423 415.314 492.829 397.134C355.605 384.247 269.686 488.809 98.6995 464.858C-55.7377 441.124 -34.9897 447.209 -196.898 460.331" stroke="#3DDEED" stroke-opacity="0.05" stroke-width="0.5" stroke-linecap="round" stroke-linejoin="round"/>
<path d="M1952.9 460.337C1830.57 454.766 1812 468.19 1702.1 500.416C1580.29 534.121 1543.02 474.057 1325.88 520.836C1126.95 564.857 1161.51 541.105 1066.11 526.558C978.025 516.092 913.923 542.415 815.296 533.24C632.206 511.54 610.687 390.229 456.996 397.894C367.181 405.59 302.501 447.915 206.187 465.751C137.53 476.749 106.023 466.904 35.9963 456.957C-50.4851 445.609 -86.6137 452.677 -196.898 460.331" stroke="#3DDEED" stroke-opacity="0.05" stroke-width="0.5" stroke-linecap="round" stroke-linejoin="round"/>
<path d="M1952.9 460.337C1841.15 455.937 1817.14 465.588 1711.05 500.169C1581.71 541.081 1556.65 485.7 1334.83 529.142C1131.97 570.084 1164.97 550.606 1066.11 533.27C976.897 520.009 913.669 538.805 815.297 525.725C625.928 496.414 606.669 384.169 448.037 399.675C359.128 411.192 292.074 452.315 197.228 467.303C130.109 476.2 101.016 466.27 27.037 457.247C-52.4081 448.434 -91.1445 454.054 -196.902 460.343" stroke="#3DDEED" stroke-opacity="0.05" stroke-width="0.5" stroke-linecap="round" stroke-linejoin="round"/>
<path d="M1952.9 460.337C1835.26 456.323 1815.26 466.977 1702.1 505.148C1572.34 547.129 1599.67 488.036 1281.09 549.145C1152.62 572.782 1141.3 554.644 1066.11 539.771C975.261 523.576 913.054 534.84 815.297 517.878C622.455 480.908 603.483 383.426 448.037 400.339C361.24 412.333 298.393 448.977 206.183 465.516C138.543 476.103 107.54 467.991 35.9922 459.438C-44.3426 450.51 -80.7623 454.482 -196.902 460.349" stroke="#3DDEED" stroke-opacity="0.05" stroke-width="0.5" stroke-linecap="round" stroke-linejoin="round"/>
<path d="M1952.9 460.337C1836.36 456.963 1813.18 467.502 1702.1 507.297C1608.26 539.759 1610.77 518.633 1460.23 531.037C1378.51 538.491 1332 550.074 1263.18 560.861C1145.95 578.13 1135.29 558.465 1039.24 541.051C941.138 524.506 873.965 528.466 770.512 498.43C596.372 445.054 574.181 369.133 403.252 409.677C311.051 433.199 248.188 467.067 152.443 470.248C30.1984 471.196 111.583 448.428 -196.902 460.343" stroke="#3DDEED" stroke-opacity="0.05" stroke-width="0.5" stroke-linecap="round" stroke-linejoin="round"/>
<path d="M1952.9 460.337C1844.82 457.772 1815.22 465.969 1711.05 506.054C1612.81 543.308 1624.28 524.578 1469.2 539.355C1377.04 548.759 1324.94 561.555 1254.21 570.464C1145.49 582.941 1131.46 565.714 1021.32 542.789C917.962 521.929 845.799 516.816 734.683 477.123C575.001 418.344 549.48 365.608 358.468 423.053C94.0538 504.382 148.45 455.744 -71.4954 457.216C-93.6868 457.506 -85.8345 457.367 -196.902 460.337" stroke="#3DDEED" stroke-opacity="0.05" stroke-width="0.5" stroke-linecap="round" stroke-linejoin="round"/>
<path d="M1952.9 460.337C1839.6 458.236 1811.75 467.496 1702.1 511.595C1611.45 547.02 1620.07 529.371 1451.29 550.63C1313.08 568.635 1237.43 590.311 1146.72 578.142C1131.5 575.649 858.687 510.653 752.597 474.057C603.159 421.477 574.177 392.619 474.915 399.15C384.534 407.504 319.907 441.275 224.106 461.146C101.853 484.342 137.838 454.096 -196.898 460.331" stroke="#3DDEED" stroke-opacity="0.05" stroke-width="0.5" stroke-linecap="round" stroke-linejoin="round"/>
<path d="M1952.9 460.337C1761.59 457.597 1736.17 513.466 1630.43 535.703C1597.72 541.34 1585.79 540.417 1505.03 550.25C1161.41 594.723 1241.79 628.114 815.301 487.137C590.332 411.137 554.368 372.507 385.342 416.298C66.0726 502.167 275.8 454.114 -196.898 460.337" stroke="#3DDEED" stroke-opacity="0.05" stroke-width="0.5" stroke-linecap="round" stroke-linejoin="round"/>
<path d="M1952.9 460.337C1838.32 458.894 1809.69 467.031 1702.1 512.705C1626.23 544.419 1630.84 536.56 1505.03 555.175C1311.76 584.987 1221.79 612.934 1092.98 579.621C981.695 549.018 771.439 455.683 609.276 410.974C427.785 364.044 322.647 460.21 143.484 467.013C67.0035 468.48 67.0814 458.424 -196.902 460.331" stroke="#3DDEED" stroke-opacity="0.05" stroke-width="0.5" stroke-linecap="round" stroke-linejoin="round"/>
<path d="M1952.9 460.337C1751.34 458.146 1735.36 515.784 1621.47 540.839C1032.93 653.387 1158.77 597.101 743.642 445.585C418.784 329.47 361.153 465.914 116.614 465.806C62.9195 465.136 -0.0789747 460.053 -196.898 460.331" stroke="#3DDEED" stroke-opacity="0.05" stroke-width="0.5" stroke-linecap="round" stroke-linejoin="round"/>
<path d="M1952.9 460.337C1752.54 458.49 1745.82 508.347 1630.43 540.453C1630.27 540.495 1382.08 591.3 1316.92 600.391C1110.97 627.317 1045.3 578.341 886.959 499.806C558.78 340.287 474.045 400.924 250.976 449.17C126.689 474.878 86.4967 460.953 -196.898 460.337" stroke="#3DDEED" stroke-opacity="0.05" stroke-width="0.5" stroke-linecap="round" stroke-linejoin="round"/>
<path d="M1952.9 460.337C1749.02 459.039 1735.01 514.045 1621.47 544.437C1233.08 638.098 1142.97 639.727 967.581 541.678C814.657 455.068 720.704 399.09 555.537 395.667C452.875 395.16 381.016 418.405 277.854 441.831C117.188 477.377 2.50018 461.888 -196.898 460.343" stroke="#3DDEED" stroke-opacity="0.05" stroke-width="0.5" stroke-linecap="round" stroke-linejoin="round"/>
<path d="M1952.9 460.337C1748.41 458.925 1736.82 511.547 1621.47 544.214C1088.32 681.539 1098.75 616.06 860.089 478.548C597.562 330.086 419.096 418.465 215.147 451.706C80.0961 472.433 -166.178 460.669 -196.902 460.331" stroke="#3DDEED" stroke-opacity="0.05" stroke-width="0.5" stroke-linecap="round" stroke-linejoin="round"/>
<path d="M1952.9 460.337C1739.55 458.635 1737.38 511.903 1612.52 545.843C1354.92 611.515 1180.67 686.923 976.54 552.748C793.454 431.002 742.994 392.202 573.443 395.317C345.781 401.359 330.987 459.365 -44.6256 464.23C-130.623 464.822 -136.45 461.17 -196.906 460.337" stroke="#3DDEED" stroke-opacity="0.05" stroke-width="0.5" stroke-linecap="round" stroke-linejoin="round"/>
<path d="M1952.9 460.337C1737.26 458.448 1739.78 508.752 1612.52 545.161C1417.64 597.825 1189.48 692.645 1012.37 580.393C858.613 479.447 785.089 388.768 609.276 393.512C293.23 404.836 340.004 469.138 -196.902 460.331" stroke="#3DDEED" stroke-opacity="0.05" stroke-width="0.5" stroke-linecap="round" stroke-linejoin="round"/>
<path d="M1952.9 460.337C1735.77 458.068 1742.71 505.408 1612.52 544.485C1435.32 594.596 1360.86 633.679 1227.34 637.567C1100.06 639.408 1064.51 620.394 1012.37 585.234C859.634 478.306 787.57 379.11 609.276 391.925C207.61 423.831 273.913 469.385 -196.898 460.337" stroke="#3DDEED" stroke-opacity="0.05" stroke-width="0.5" stroke-linecap="round" stroke-linejoin="round"/>
<path d="M1952.9 460.337C1851.67 459.498 1816.03 455.744 1711.05 503.114C1606.86 551.36 1643.94 531.339 1522.94 572.021C1389.72 618.016 1311.53 648.775 1173.6 642.558C1089.77 637.947 1065.38 635.943 958.609 547.4C668.215 304.511 731.706 392.945 44.9516 459.582C-97.2418 471.938 -121.434 461.973 -196.902 460.331" stroke="#3DDEED" stroke-opacity="0.05" stroke-width="0.5" stroke-linecap="round" stroke-linejoin="round"/>
<path d="M1952.9 460.337C1852.54 459.426 1816.63 454.102 1711.05 500.851C1596.84 552.579 1639.66 529.691 1531.9 567.621C1392.53 617.702 1318.03 653.2 1173.6 648.528C1089.27 644.961 1064.93 643.391 958.609 550.889C730.607 350.717 702.675 380.68 546.569 400.255C-177.277 487.59 -21.9218 464.339 -196.898 460.337" stroke="#3DDEED" stroke-opacity="0.05" stroke-width="0.5" stroke-linecap="round" stroke-linejoin="round"/>
<path d="M1952.9 460.337C1882.64 459.625 1848.65 454.772 1782.72 472.029C1714.41 491.7 1686.28 513.605 1621.47 535.673C1445.35 592.719 1387.58 631.591 1272.13 649.192C1094.79 673.179 1048.28 632.852 985.491 578.758C886.414 491.26 793.876 387.024 671.98 385.448C619.872 386.909 613.487 396.313 510.744 407.383C428.646 415.803 381.245 416.902 250.976 431.147C-152.655 478.089 28.4597 465.643 -196.898 460.337" stroke="#3DDEED" stroke-opacity="0.05" stroke-width="0.5" stroke-linecap="round" stroke-linejoin="round"/>
<path d="M1952.9 460.337C1862.07 459.329 1821.47 450.649 1720.02 492.086C1504.2 583.134 1750.92 478.029 1415.45 611.237C1314.04 650.834 1244.22 665.815 1128.81 658.844C970.033 645.19 865.444 382.991 671.984 385.164C606.381 388.732 607.989 405.198 439.09 415.954C91.7821 436.036 78.2139 457.868 -44.6174 465.105C-117.555 468.492 -134.859 461.846 -196.898 460.343" stroke="#3DDEED" stroke-opacity="0.05" stroke-width="0.5" stroke-linecap="round" stroke-linejoin="round"/>
<path d="M1952.9 460.337C1866.95 459.48 1825.54 449.575 1728.96 486.129C1691.14 501.153 1674.82 509.905 1639.4 523.582C1401.32 610.308 1392.09 630.329 1290.04 654.033C1232.61 666.334 1130.02 675.123 1075.07 653.828C995.009 616.754 934.503 525.345 833.211 445.971C686.499 336.025 653.774 405.693 465.951 416.763C360.026 422.316 288.531 418.194 143.48 438.293C58.7535 450.384 24.7612 460.271 -44.6256 465.003C-117.198 468.932 -133.744 461.9 -196.906 460.331" stroke="#3DDEED" stroke-opacity="0.05" stroke-width="0.5" stroke-linecap="round" stroke-linejoin="round"/>
<path d="M1952.9 460.337C1810.75 458.834 1821.53 430.223 1415.45 612.668C1313.55 657.805 1245.01 675.998 1128.81 671.936C1009.81 664.427 950.917 531.453 815.297 432.016C675.904 335.355 652.31 414.065 448.037 419.926C349.234 422.147 277.28 416.721 152.439 434.074C70.6898 445.965 40.2321 456.275 -26.711 463.397C-107.161 470.815 -131.484 462.003 -196.902 460.337" stroke="#3DDEED" stroke-opacity="0.05" stroke-width="0.5" stroke-linecap="round" stroke-linejoin="round"/>
<path d="M1952.9 460.337C1865.14 459.353 1823.4 446.315 1720.02 484.541C1521.63 561.048 1561.72 541.207 1478.15 581.329C1406.98 615.873 1356.93 641.653 1290.04 660.642C1232.8 675.793 1130.61 688.963 1075.07 667.161C994.254 628.796 934.282 530.524 833.211 447.48C683.211 329.953 650.653 416.902 474.911 423.119C379.761 425.419 310.263 414.952 197.228 425.642C116.512 434.056 80.2273 445.072 18.0777 456.311C-89.693 474.733 -122.726 462.19 -196.902 460.337" stroke="#3DDEED" stroke-opacity="0.05" stroke-width="0.5" stroke-linecap="round" stroke-linejoin="round"/>
<path d="M1952.9 460.337C1868.54 459.335 1826.45 446.128 1728.96 478.572C1417.42 588.439 1420.6 622.06 1290.04 663.147C1232.34 680.163 1131.31 695.76 1075.07 673.644C993.922 634.875 934.13 534.061 833.211 449.985C682.185 330.188 647.98 424.881 474.911 427.604C382.623 427.821 313.536 414.3 206.187 422.105C128.694 428.642 89.1416 440.515 27.037 453.305C-87.3107 475.819 -122.795 462.154 -196.902 460.331" stroke="#3DDEED" stroke-opacity="0.05" stroke-width="0.5" stroke-linecap="round" stroke-linejoin="round"/>
<path d="M1952.9 460.337C1867.74 459.269 1826.26 445.229 1728.96 475.91C1429.04 576.554 1442.25 610.187 1299.01 662.556C1240.77 682.668 1141.59 701.198 1084.02 683.652C961.59 635.424 860.204 400.617 698.853 392.498C618.338 393.108 605.799 432.601 474.915 432.094C289.716 428.497 290.836 391.412 35.9963 449.937C-86.0437 477.045 -119.405 462.19 -196.898 460.337" stroke="#3DDEED" stroke-opacity="0.05" stroke-width="0.5" stroke-linecap="round" stroke-linejoin="round"/>
<path d="M1952.9 460.337C1867.91 459.214 1826.43 444.215 1728.96 473.248C1444.73 563.716 1444.15 607.242 1299.01 664.783C1241.27 686.501 1142.6 707.88 1084.02 690.146C961.225 641.671 860.52 401.099 698.853 395.444C617.489 397.393 603.396 439.664 474.915 436.585C288.847 428.992 289.019 386.154 35.9963 448.416C-85.8264 477.419 -119.277 462.166 -196.898 460.343" stroke="#3DDEED" stroke-opacity="0.05" stroke-width="0.5" stroke-linecap="round" stroke-linejoin="round"/>
<path d="M1952.9 460.337C1865.55 459.148 1823.57 442.108 1720.02 473.278C1418.69 569.203 1456.73 602.853 1290.04 670.656C1231.62 693.201 1133.2 716.077 1075.07 693.092C953.615 633.969 852.77 392.136 689.898 398.745C611.65 406.484 593.793 448.506 465.959 440.509C295.494 426.897 268.066 384.386 44.9556 444.535C-84.0099 478.385 -115.411 462.202 -196.898 460.337" stroke="#3DDEED" stroke-opacity="0.05" stroke-width="0.5" stroke-linecap="round" stroke-linejoin="round"/>
<path d="M1952.9 460.337C1869.21 459.178 1826.9 442.543 1728.96 468.117C1461.73 543.356 1451.1 598.32 1299.01 668.127C1240.71 693.653 1144.18 719.976 1084.02 702.007C961.332 653.598 861.631 404.244 698.853 403.538C615.927 408.228 599.837 454.977 474.915 446.834C386.354 439.205 321.626 413.636 224.106 411.723C62.2388 411.62 49.7777 475.469 -170.024 461.236C-179.27 460.802 -179.811 460.711 -196.898 460.337" stroke="#3DDEED" stroke-opacity="0.05" stroke-width="0.5" stroke-linecap="round" stroke-linejoin="round"/>
<path d="M1952.9 460.337C1813.37 458.375 1836.64 431.557 1639.4 493.233C1579.56 511.378 1555.73 517.45 1487.11 557.04C1418.95 597.276 1219 747.247 1084.02 707.192C960.323 658.493 862.291 407.256 698.849 409.091C615.456 415.103 598.004 463.566 474.911 452.828C385.702 443.008 321.425 413.962 224.102 409.972C64.449 406.804 40.392 477.298 -161.073 461.774C-173.833 460.965 -176.314 460.772 -196.902 460.343" stroke="#3DDEED" stroke-opacity="0.05" stroke-width="0.5" stroke-linecap="round" stroke-linejoin="round"/>
<path d="M1952.9 460.337C1868.3 459.148 1826.89 441.541 1728.96 463.252C1566.76 502.474 1515.04 536.174 1478.15 558.519C1408.89 601.483 1203.95 759.452 1075.07 708.846C951.753 648.733 855.095 400.973 689.898 415.411C609.03 427.211 588.967 474.075 465.959 457.609C379.724 444.13 317.078 414.005 224.106 408.204C72.6374 402.252 32.4535 476.284 -161.069 461.707C-173.948 460.916 -176.507 460.729 -196.898 460.325" stroke="#3DDEED" stroke-opacity="0.05" stroke-width="0.5" stroke-linecap="round" stroke-linejoin="round"/>
<path d="M1952.9 460.337C1867.82 459.142 1827.16 440.974 1728.96 460.82C1571.36 495.829 1519.78 528.194 1469.2 560.408C1392.58 610.121 1191.52 770.818 1066.11 709.661C943.549 638.448 847.472 395.691 680.935 422.546C603.868 439.247 579.741 484.095 456.996 461.762C370.256 444.07 307.557 411.355 215.143 405.928C65.5807 400.991 47.297 474.123 -170.032 461.128C-179.414 460.729 -179.738 460.657 -196.906 460.331" stroke="#3DDEED" stroke-opacity="0.05" stroke-width="0.5" stroke-linecap="round" stroke-linejoin="round"/>
<path d="M1952.9 460.337C1866.25 459.1 1823.67 439.235 1720.02 460.198C1569.52 493.306 1527.89 518.391 1469.2 556.756C1392.37 607.996 1192 776.25 1066.11 714.852C943.081 643.21 848.251 398.794 680.935 428.37C605.57 445.875 580.369 489.962 465.955 469.168C329.761 440.919 253.19 369.187 80.7808 423.566C-91.8663 479.912 -70.7082 462.57 -196.898 460.337" stroke="#3DDEED" stroke-opacity="0.05" stroke-width="0.5" stroke-linecap="round" stroke-linejoin="round"/>
<path d="M1952.9 460.337C1866.44 459.142 1823.5 439.217 1720.02 458.176C1571.73 487.952 1529.57 512.959 1469.2 553.099C1387.93 608.298 1200.32 771.15 1075.07 722.33C951.036 661.898 856.924 410.6 689.898 433.241C609.727 448.73 586.794 496.867 474.919 477.576C334.989 449.213 257.512 364.485 80.789 421.405C-92.7889 479.435 -70.2244 462.444 -196.898 460.337" stroke="#3DDEED" stroke-opacity="0.05" stroke-width="0.5" stroke-linecap="round" stroke-linejoin="round"/>
<path d="M1952.9 460.337C1868.28 459.202 1827.06 440.551 1728.96 454.772C1576.61 479.791 1525.41 511.492 1469.2 549.441C1379.52 611.376 1191.39 781.731 1066.11 720.767C942.462 648.92 850.138 406.176 680.935 441.674C605.701 461.52 577.613 507.358 465.955 482.453C321.322 445.899 252.69 360.544 71.8255 422.304C-88.0283 478.837 -82.0745 462.124 -196.898 460.337" stroke="#3DDEED" stroke-opacity="0.05" stroke-width="0.5" stroke-linecap="round" stroke-linejoin="round"/>
<path d="M1952.9 460.337C1885.32 459.462 1675.38 408.675 1478.15 539.65C1382.88 604.93 1211.76 767.999 1084.02 731.409C960.696 683.519 870.037 435.746 707.809 443.835C620.081 453.589 599.39 509.174 492.829 494.779C403.002 479.169 337.904 428.485 242.021 405.319C85.9309 372.199 34.106 471.48 -134.195 463.162C-164.037 461.267 -166.01 460.772 -196.898 460.331" stroke="#3DDEED" stroke-opacity="0.05" stroke-width="0.5" stroke-linecap="round" stroke-linejoin="round"/>
<path d="M1952.9 460.337C1865.55 459.245 1823.1 439.356 1720.02 452.363C1577.58 472.699 1533.7 497.247 1469.2 542.125C1374.83 609.481 1199.82 779.045 1075.07 730.739C952.869 671.435 862.348 430.127 698.853 451.235C614.513 467.055 590.423 520.564 483.874 500.277C396.929 480.407 333.902 429.716 242.021 404.86C86.4106 367.612 34.7539 470.628 -134.195 463.011C-164.693 461.188 -165.944 460.741 -196.898 460.337" stroke="#3DDEED" stroke-opacity="0.05" stroke-width="0.5" stroke-linecap="round" stroke-linejoin="round"/>
<path d="M1952.9 460.337C1874.85 459.395 1666.99 407.787 1487.12 526.039C1381.52 598.055 1213.72 773.872 1084.02 737.004C960.725 689.344 870.857 442.144 707.809 456.323C619.552 469.3 597.012 526.347 492.829 509.186C405.589 491.109 343.567 437.617 250.976 407.081C91.8519 359.469 39.4735 466.313 -125.239 463.222C-159.724 461.798 -155.75 460.832 -196.902 460.331" stroke="#3DDEED" stroke-opacity="0.05" stroke-width="0.5" stroke-linecap="round" stroke-linejoin="round"/>
<path d="M1952.9 460.337C1864.81 459.347 1658.73 405.337 1478.15 529.039C1375.71 601.713 1202.23 782.781 1075.07 733.545C952.598 674.187 863.911 435.493 698.853 463.391C612.909 482.779 584.678 540.64 474.915 512.205C337.588 471.202 254.461 354.121 89.7401 407.703C-77.0352 465.89 -17.846 462.311 -196.898 460.337" stroke="#3DDEED" stroke-opacity="0.05" stroke-width="0.5" stroke-linecap="round" stroke-linejoin="round"/>
<path d="M1952.9 460.337C1860.94 459.365 1657.78 407.051 1487.12 519.834C1376.49 595.827 1224.7 763.647 1092.99 739.267C966.138 702.961 876.798 444.843 707.813 467.345C617.403 484.638 591.136 545.97 483.874 521.729C393.255 497.259 327.469 433.066 233.065 402.216C78.5256 357.35 45.6856 471.83 -161.064 461.164C-174.149 460.645 -176.802 460.536 -196.894 460.331" stroke="#3DDEED" stroke-opacity="0.05" stroke-width="0.5" stroke-linecap="round" stroke-linejoin="round"/>
<path d="M1952.9 460.337C1833.52 459.148 1807.92 430.012 1630.43 458.375C1435.81 491.241 1345.62 684.334 1164.64 734.378C1103.32 749.167 1074.5 742.334 1021.32 695.651C917.302 598.194 840.087 452.122 707.813 472.825C602.781 495.273 572.18 583.315 412.216 499.33C296.761 436.133 224.077 363.966 98.7036 400.852C39.7604 420.077 3.16034 442.935 -62.5321 456.902C-115.915 466.675 -128.983 460.953 -196.898 460.337" stroke="#3DDEED" stroke-opacity="0.05" stroke-width="0.5" stroke-linecap="round" stroke-linejoin="round"/>
<path d="M1952.9 460.337C1839.45 459.305 1802.37 431.726 1639.4 454.615C1430.97 485.362 1349.79 681.98 1164.63 734.016C1103.71 748.961 1074.76 742.141 1021.32 695.422C916.031 597.228 840.608 454.428 707.809 478.3C602.351 503.205 569.835 591.838 412.211 505.269C297.347 439.422 224.008 362.179 98.6996 398.878C39.986 418.055 3.37363 441.517 -62.5361 456.184C-115.382 466.361 -128.647 460.898 -196.902 460.337" stroke="#3DDEED" stroke-opacity="0.05" stroke-width="0.5" stroke-linecap="round" stroke-linejoin="round"/>
<path d="M1952.9 460.337C1836.57 459.359 1796.34 431.056 1630.43 453.498C1433.78 482.423 1340.01 689.995 1155.69 735.875C1102.23 747.114 1072.43 742.623 1012.37 686.875C907.436 584.552 832.768 451.452 698.853 486.087C596.815 517.782 561.121 600.397 403.256 505.837C287.178 433.73 216.639 358.334 89.7442 399.832C30.4648 420.988 -6.5289 444.136 -71.4914 457.277C-119.577 465.474 -130.476 460.808 -196.898 460.337" stroke="#3DDEED" stroke-opacity="0.05" stroke-width="0.5" stroke-linecap="round" stroke-linejoin="round"/>
<path d="M1952.9 460.337C1835.37 459.426 1783.83 430.905 1621.47 453.384C1489.67 474.172 1413.8 574.907 1290.04 666.443C1125.35 784.562 1062.71 732.471 1003.41 675.002C902.249 572.794 828.537 453.209 698.858 490.246C598.078 524.138 558.747 607.948 403.26 511.861C292.984 441.022 219.78 360.471 98.7036 395.227C37.5504 415.055 -1.92409 441.927 -71.4873 456.625C-119.081 465.184 -130.262 460.766 -196.894 460.331" stroke="#3DDEED" stroke-opacity="0.05" stroke-width="0.5" stroke-linecap="round" stroke-linejoin="round"/>
<path d="M1952.9 460.337C1814.29 459.347 1643.49 403.755 1487.12 506.458C1371.79 585.482 1214.8 767.86 1084.02 729.103C959.991 679.921 876.487 447.68 707.809 491.477C617.317 519.804 584.407 582.53 483.87 557.119C394.826 529.787 333.537 456.402 242.016 408.705C86.3615 333.852 35.0163 465.57 -143.158 461.454C-173.694 460.452 -170.811 460.542 -196.906 460.337" stroke="#3DDEED" stroke-opacity="0.05" stroke-width="0.5" stroke-linecap="round" stroke-linejoin="round"/>
<path d="M1952.9 460.337C1795.13 459.347 1638.48 401.305 1478.15 510.508C1366.14 589.942 1203.79 773.498 1075.07 722.071C947.838 659.363 868.704 432.33 689.898 501.804C607.448 537.519 567.723 594.831 465.959 557.988C376.653 521.071 314.61 443.569 224.106 401.099C77.6522 339.164 39.662 466.645 -161.069 460.82C-176.703 460.452 -174.838 460.5 -196.898 460.343" stroke="#3DDEED" stroke-opacity="0.05" stroke-width="0.5" stroke-linecap="round" stroke-linejoin="round"/>
<path d="M1952.9 460.337C1784.3 459.389 1636.23 401.425 1478.15 508.414C1366.1 587.389 1204.03 770.516 1075.07 718.576C947.46 655.379 869.848 431.491 689.898 506.066C608.747 543.217 569.921 597.524 474.919 568.074C385.407 535.341 324.324 455.888 233.065 406.188C84.1964 331.77 31.4407 463.621 -143.15 461.206C-174.251 460.415 -171.299 460.488 -196.898 460.331" stroke="#3DDEED" stroke-opacity="0.05" stroke-width="0.5" stroke-linecap="round" stroke-linejoin="round"/>
<path d="M1952.9 460.337C1828.54 459.721 1754.78 434.002 1621.47 448.036C1490.92 464.737 1413.57 565.617 1290.04 655.59C1121.61 774.457 1057.98 713.065 1003.41 661.499C898.202 558.289 829.492 454.814 698.858 506.392C597.795 550.938 549.538 637.349 403.26 536.065C292.185 455.629 219.28 356.336 98.7036 388.635C40.2074 406.894 4.8743 432.921 -62.5321 451.814C-114.226 464.689 -132.513 460.675 -196.898 460.343" stroke="#3DDEED" stroke-opacity="0.05" stroke-width="0.5" stroke-linecap="round" stroke-linejoin="round"/>
<path d="M1952.9 460.337C1748.87 459.057 1629.59 400.303 1469.2 511.197C1355.95 592.127 1195.09 769.46 1066.11 704.693C940.051 630.577 866.449 429.952 689.894 513.025C606.39 555.688 563.528 613.779 465.955 578.118C376.025 540.073 315.077 454.651 224.102 403.478C76.7952 327.895 62.6857 461.514 -196.898 460.337" stroke="#3DDEED" stroke-opacity="0.05" stroke-width="0.5" stroke-linecap="round" stroke-linejoin="round"/>
<path d="M1952.9 460.337C1814.12 459.57 1692.98 429.541 1585.65 453.251C1462.68 485.405 1375.2 599.322 1254.22 671.133C1099.2 758.528 1053.55 701.18 949.67 595.821C845.738 491.899 783.514 458.297 663.028 531.025C554.614 599.051 507.484 637.15 367.431 519.828C240.343 410.902 188.773 344.826 53.9191 402.53C-92.6125 467.574 -82.6281 460.796 -196.898 460.337" stroke="#3DDEED" stroke-opacity="0.05" stroke-width="0.5" stroke-linecap="round" stroke-linejoin="round"/>
<path d="M1952.9 460.337C1819.87 459.703 1768.9 443.581 1666.26 444.529C1424.52 449.961 1335.68 691.215 1128.81 707.144C965.916 711.508 904.759 388.834 671.98 528.713C592.141 578.921 544.568 629.249 448.041 583.055C306.881 507.478 235.874 332.005 71.8255 393.585C-64.488 448.79 -37.5402 460.868 -196.898 460.337" stroke="#3DDEED" stroke-opacity="0.05" stroke-width="0.5" stroke-linecap="round" stroke-linejoin="round"/>
<path d="M1952.9 460.337C1804.67 459.746 1760.24 443.267 1657.31 444.625C1426.84 450.891 1325.72 697.402 1119.86 701.627C1096.1 700.571 1080.69 696.949 1048.19 675.153C910.983 573.814 854.402 417.246 671.98 531.828C590.378 585.204 542.633 634.838 448.041 589.568C361.063 542.777 302.145 454.295 215.147 401.595C97.6048 336.949 39.9614 427.67 -89.41 455.792C-125.407 462.317 -133.44 460.591 -196.902 460.337" stroke="#3DDEED" stroke-opacity="0.05" stroke-width="0.5" stroke-linecap="round" stroke-linejoin="round"/>
<path d="M1952.9 460.337C1772.84 459.752 1683.47 431.322 1585.65 451.663C1465.89 481.318 1382.2 584.643 1263.18 653.695C1100.72 743.046 1050.3 677.736 958.617 588.222C852.795 485.894 791.674 456.522 671.984 534.93C608.407 578.124 573.394 612.644 510.748 613.308C454.064 609.747 412.134 576.693 367.427 536.433C241.114 419.558 189.765 339.713 53.915 398.136C-92.8873 464.176 -79.4339 460.711 -196.898 460.337" stroke="#3DDEED" stroke-opacity="0.05" stroke-width="0.5" stroke-linecap="round" stroke-linejoin="round"/>
<path d="M1952.9 460.337C1759.29 459.558 1679.76 432.445 1585.65 451.669C1465.95 480.841 1382.13 582.494 1263.18 649.011C1101.26 734.753 1051.44 670.795 958.617 581.214C850.945 478.705 790.436 455.943 671.984 537.067C607.706 582.542 572.352 617.183 510.748 619.006C453.929 616.441 412.142 583.212 367.427 542.137C239.843 421.441 189.425 338.506 53.915 396.784C-86.3594 460.065 -71.8686 460.88 -196.898 460.337" stroke="#3DDEED" stroke-opacity="0.05" stroke-width="0.5" stroke-linecap="round" stroke-linejoin="round"/>
<path d="M1952.9 460.337C1736.56 459.914 1671.94 430.99 1576.69 453.836C1458.09 486.732 1372.51 588.711 1254.21 648.872C1099.54 723.073 1056.6 667.137 958.614 574.17C848.387 470.894 788.427 455.967 671.98 539.185C608.563 585.814 576.088 617.231 519.703 624.263C348.344 632.659 265.651 317.072 71.8297 387.983C9.72923 412.9 -30.2947 442.313 -98.3612 456.383C-128.196 461.436 -131.546 460.542 -196.894 460.331" stroke="#3DDEED" stroke-opacity="0.05" stroke-width="0.5" stroke-linecap="round" stroke-linejoin="round"/>
<path d="M1952.9 460.337C1729.27 459.661 1674.87 434.086 1585.65 451.712C1462.38 480.745 1377.31 583.924 1254.22 643.983C1094.62 717.236 1055.42 656.375 949.67 558.875C837.898 458.466 778.389 460.096 663.028 548.137C541.177 642.691 489.582 670.252 367.431 553.557C248.839 436.507 192.242 338.494 62.8744 390.235C-77.1212 450.462 -51.1781 460.651 -196.898 460.337" stroke="#3DDEED" stroke-opacity="0.05" stroke-width="0.5" stroke-linecap="round" stroke-linejoin="round"/>
<path d="M1952.9 460.337C1627.44 459.438 1616.22 402.536 1433.38 525.333C1324.04 599.872 1237.86 674.549 1110.9 667.125C1006.92 649.959 933.15 481.982 806.345 480.008C657.341 488.338 587.442 706.311 430.13 611.473C339.311 550.744 278.407 441.414 188.277 390.005C134.652 363.272 100.836 371.366 44.9556 396.808C-98.103 464.623 -90.181 460.452 -196.898 460.337" stroke="#3DDEED" stroke-opacity="0.05" stroke-width="0.5" stroke-linecap="round" stroke-linejoin="round"/>
<path d="M1952.9 460.337C1859.56 460.337 1849.17 463.615 1764.8 455.375C1689.51 447.595 1641.1 441.197 1585.64 451.754C1466.38 478.916 1382.09 573.687 1263.18 630.215C1096.03 704.838 1048.75 635.001 958.613 553.038C844.315 451.084 784.859 454.748 671.98 545.529C542.838 651.335 491.095 687.647 367.423 564.965C242.677 436.748 191.102 332.355 53.9109 391.382C-87.8848 456.118 -65.7919 460.337 -196.898 460.337" stroke="#3DDEED" stroke-opacity="0.05" stroke-width="0.5" stroke-linecap="round" stroke-linejoin="round"/>
</g>
<defs>
<clipPath id="clip0_5_51">
<rect width="2150" height="796" fill="white" transform="translate(-197)"/>
</clipPath>
</defs>
</svg>
